<?xml version="1.0" standalone="no"?>
<!DOCTYPE svg PUBLIC "-//W3C//DTD SVG 20010904//EN"
 "http://www.w3.org/TR/2001/REC-SVG-20010904/DTD/svg10.dtd">
<svg version="1.0" xmlns="http://www.w3.org/2000/svg"
 width="1280.000000pt" height="1280.000000pt" viewBox="0 0 1280.000000 1280.000000"
 preserveAspectRatio="xMidYMid meet">
<metadata>
Created by potrace 1.14, written by Peter Selinger 2001-2017
</metadata>
<g transform="translate(0.000000,1280.000000) scale(0.100000,-0.100000)"
fill="#000000" stroke="none">
<path d="M5656 8409 c1 -1344 2 -2447 3 -2451 0 -5 955 -8 2120 -8 1686 0
2120 3 2123 13 2 6 4 777 4 1711 l-1 1699 -82 42 c-46 24 -83 41 -83 38 0 -3
-6 -1 -12 4 -7 5 -40 20 -73 32 -33 13 -69 27 -80 31 -36 14 -168 49 -245 64
-102 20 -157 26 -268 32 -52 2 -97 5 -100 5 -4 1 -9 1 -12 0 -3 -1 -50 -4
-105 -6 -113 -6 -125 -7 -142 -18 -7 -5 -13 -4 -13 2 0 7 -8 7 -22 2 -13 -5
-41 -11 -63 -14 -22 -4 -55 -11 -74 -16 -19 -6 -38 -8 -42 -5 -5 3 -9 1 -9 -4
0 -5 -6 -9 -12 -9 -54 -1 -411 -143 -438 -174 -3 -3 -25 -16 -50 -30 -25 -13
-51 -30 -58 -36 -19 -18 -30 -16 -43 10 -17 31 -106 168 -124 192 -9 11 -24
32 -33 48 -9 15 -20 27 -24 27 -4 0 -8 6 -8 13 0 6 -12 26 -28 42 -15 17 -43
51 -62 75 -76 99 -323 352 -409 420 -24 19 -49 40 -55 46 -6 5 -47 37 -91 70
-44 32 -81 62 -83 67 -2 4 -9 7 -16 7 -7 0 -21 9 -31 20 -10 11 -21 20 -25 20
-4 0 -35 18 -68 40 -33 22 -65 40 -71 40 -6 0 -11 3 -11 8 0 4 -15 13 -32 21
-18 8 -35 17 -38 21 -12 17 -311 155 -410 190 -36 13 -69 27 -75 31 -10 7 -69
21 -80 20 -3 -1 -18 5 -33 13 -15 7 -83 28 -152 45 -126 31 -153 37 -225 47
l-40 6 1 -2443z"/>
<path d="M4415 10824 c-5 -1 -55 -14 -110 -29 -189 -50 -459 -150 -582 -217
-29 -15 -53 -24 -53 -20 0 4 -4 2 -8 -3 -4 -6 -32 -23 -62 -39 -58 -30 -221
-127 -230 -136 -3 -3 -25 -18 -50 -34 -43 -28 -199 -144 -210 -155 -3 -3 -27
-24 -55 -46 -70 -55 -310 -296 -379 -380 -32 -38 -65 -79 -74 -90 -50 -58
-222 -314 -249 -369 -9 -20 -20 -36 -25 -36 -4 0 -8 -9 -8 -20 0 -11 -4 -20
-9 -20 -5 0 -15 -16 -22 -35 -7 -19 -17 -35 -21 -35 -4 0 -8 -6 -8 -13 0 -7
-13 -37 -28 -67 -16 -30 -34 -68 -40 -85 -6 -16 -25 -64 -42 -105 -29 -67 -96
-261 -105 -300 -2 -8 -13 -49 -24 -90 -12 -41 -21 -76 -21 -77 0 -2 0 -4 -1
-5 0 -2 -2 -14 -5 -28 -2 -14 -13 -72 -24 -130 -26 -142 -41 -276 -44 -390 -1
-36 -5 -71 -10 -78 -4 -6 -4 -12 1 -12 4 0 8 -11 8 -25 0 -14 -3 -25 -7 -25
-4 0 -4 -10 1 -23 5 -14 5 -30 0 -40 -6 -9 -6 -17 -2 -17 10 0 10 -41 -1 -58
-4 -7 -3 -12 3 -12 5 0 8 -8 6 -17 -2 -10 -4 -21 -4 -24 -1 -4 -11 -9 -24 -13
-13 -3 -41 -13 -63 -22 -21 -10 -46 -19 -54 -20 -20 -4 -64 -27 -72 -39 -4 -5
-8 -6 -8 -2 0 4 -10 2 -22 -5 -13 -7 -25 -13 -28 -13 -19 -3 -289 -151 -300
-165 -3 -3 -23 -16 -44 -29 -52 -29 -252 -180 -293 -220 -18 -17 -35 -31 -38
-31 -8 0 -231 -225 -275 -277 -19 -23 -49 -59 -67 -80 -18 -21 -31 -41 -30
-45 1 -4 -5 -13 -14 -20 -23 -19 -79 -94 -79 -106 0 -6 -3 -12 -8 -14 -4 -1
-27 -34 -51 -73 -24 -38 -55 -86 -68 -106 -12 -19 -23 -38 -23 -42 0 -3 -13
-28 -28 -54 -16 -26 -30 -52 -31 -58 -1 -5 -17 -41 -36 -80 -48 -102 -73 -164
-121 -308 -23 -70 -43 -130 -43 -132 -1 -3 -1 -6 -2 -7 0 -2 -2 -10 -4 -18 -1
-8 -10 -44 -19 -80 -9 -36 -19 -85 -22 -110 -3 -24 -8 -49 -12 -54 -3 -6 -7
-37 -10 -70 -2 -34 -6 -63 -10 -66 -26 -19 -18 -765 8 -765 1 0 3 -16 5 -35 1
-19 5 -45 8 -56 3 -12 8 -39 11 -60 4 -22 8 -46 11 -54 2 -8 7 -26 10 -40 22
-108 29 -130 37 -130 5 0 7 -4 4 -9 -3 -4 8 -48 25 -97 16 -49 33 -98 36 -109
3 -11 11 -33 18 -50 7 -16 25 -59 40 -95 80 -192 281 -529 374 -630 9 -10 27
-32 41 -50 112 -148 367 -389 540 -510 19 -14 37 -27 40 -30 3 -3 30 -21 60
-41 117 -76 190 -119 205 -119 8 0 15 -4 15 -8 0 -8 148 -82 260 -130 94 -41
348 -125 415 -138 22 -4 52 -11 88 -19 45 -11 193 -38 227 -41 19 -1 69 -6
110 -11 95 -10 7800 -11 7895 0 39 4 81 9 95 12 14 3 39 7 55 10 17 2 64 10
105 19 67 14 87 18 140 31 8 2 15 4 15 5 0 1 8 3 19 5 35 7 161 49 171 57 5 4
15 8 23 8 14 0 90 31 134 56 15 8 30 14 33 13 8 -2 180 86 220 112 17 11 42
25 58 31 15 7 27 16 27 20 0 4 4 8 10 8 18 0 187 124 309 228 52 44 221 210
221 218 0 2 12 17 28 32 15 15 50 56 77 92 28 35 58 73 67 84 10 11 20 28 24
38 3 10 10 18 15 18 5 0 9 6 9 14 0 8 3 16 8 18 7 3 53 72 65 98 4 8 18 33 32
55 51 84 179 362 190 416 2 8 10 31 17 50 8 18 16 37 16 42 1 4 2 8 3 10 2 6
9 34 13 52 2 11 5 20 6 20 1 0 3 7 5 15 2 8 11 47 20 85 9 39 18 81 20 95 2
14 7 41 10 60 21 106 28 221 28 430 0 188 -5 284 -19 350 -3 14 -6 39 -8 55
-6 41 -16 97 -22 117 -5 16 -10 37 -19 84 -10 46 -55 193 -76 249 -13 33 -24
62 -24 65 -20 77 -220 458 -246 468 -5 2 -9 10 -9 17 0 8 -6 20 -12 27 -7 7
-25 31 -41 54 -15 22 -35 49 -45 60 -9 11 -33 40 -52 64 -67 86 -220 245 -304
315 -27 22 -60 50 -75 63 -14 13 -38 30 -53 40 -16 9 -28 20 -28 24 0 4 -6 8
-14 8 -8 0 -16 4 -18 8 -4 11 -139 101 -198 133 -25 13 -47 26 -50 29 -8 8
-194 98 -242 116 -24 10 -47 20 -53 24 -5 4 -22 10 -37 14 -31 7 -39 -11 -27
-56 4 -15 4 -30 -1 -33 -5 -3 -5 -18 -1 -33 4 -15 5 -38 1 -52 -4 -14 -3 -37
1 -51 4 -15 3 -32 -1 -39 -4 -7 -4 -24 0 -39 4 -14 4 -35 0 -46 -4 -11 -4 -29
0 -41 5 -11 5 -27 0 -34 -4 -7 -4 -25 0 -40 4 -15 4 -33 0 -40 -4 -7 -4 -25 0
-40 4 -15 4 -33 0 -40 -4 -7 -4 -24 0 -39 4 -14 4 -35 0 -46 -4 -11 -4 -29 0
-41 5 -11 5 -27 0 -34 -4 -7 -4 -26 0 -41 5 -16 5 -31 0 -34 -5 -3 -5 -19 0
-35 5 -18 5 -32 -1 -36 -5 -3 -7 -10 -3 -15 3 -6 6 -32 5 -57 -3 -132 -3 -151
4 -161 3 -6 1 -11 -5 -11 -6 0 -8 -5 -5 -11 7 -10 8 -74 2 -134 -1 -16 1 -42
5 -57 3 -15 3 -30 -2 -33 -5 -3 -5 -18 -1 -33 4 -15 5 -38 1 -52 -4 -14 -3
-37 1 -51 4 -15 3 -32 -1 -39 -4 -7 -4 -24 0 -39 4 -14 4 -35 0 -46 -4 -11 -4
-29 0 -41 5 -11 5 -27 0 -34 -4 -7 -4 -25 0 -40 4 -15 4 -33 0 -40 -4 -7 -4
-25 0 -40 4 -15 4 -33 0 -40 -4 -7 -4 -24 0 -39 4 -14 4 -35 0 -46 -4 -11 -4
-29 0 -41 5 -11 5 -27 0 -34 -4 -7 -4 -26 0 -41 5 -16 5 -29 0 -29 -5 0 -5
-13 0 -29 4 -16 6 -32 3 -35 -3 -2 -6 -40 -8 -83 -1 -43 -6 -91 -11 -108 -4
-16 -8 -41 -10 -55 -1 -14 -3 -25 -4 -25 -1 0 -3 -8 -6 -18 -17 -73 -35 -126
-56 -173 -12 -27 -23 -55 -24 -62 -1 -8 -9 -21 -16 -30 -8 -10 -24 -37 -38
-62 -41 -77 -147 -212 -208 -264 -7 -6 -23 -20 -35 -32 -42 -39 -114 -94 -125
-94 -6 0 -12 -4 -14 -9 -6 -16 -192 -109 -272 -136 -95 -31 -215 -57 -233 -51
-7 3 -13 2 -13 -2 0 -4 -30 -7 -68 -7 -37 0 -76 -3 -87 -6 -11 -3 -29 -3 -40
1 -11 4 -25 3 -32 -2 -7 -5 -14 -5 -18 2 -4 7 -12 7 -26 0 -12 -7 -19 -7 -19
-1 0 7 -8 7 -22 2 -13 -5 -32 -5 -43 -1 -11 4 -25 3 -32 -2 -7 -5 -14 -5 -18
2 -4 7 -12 7 -26 0 -12 -7 -25 -7 -37 -1 -11 6 -24 6 -35 0 -11 -7 -17 -7 -17
0 0 7 -8 7 -26 1 -14 -6 -23 -6 -20 -2 5 9 -69 6 -84 -3 -6 -3 -10 -3 -10 2 0
4 -25 8 -55 8 -30 0 -55 -4 -55 -8 0 -4 -8 -3 -18 2 -11 6 -24 6 -34 0 -11 -6
-19 -6 -23 1 -4 7 -12 7 -25 0 -10 -6 -21 -7 -23 -3 -6 9 -59 9 -73 0 -6 -3
-16 -2 -24 3 -9 5 -19 5 -26 -1 -7 -6 -15 -6 -18 -1 -3 5 -26 6 -51 2 -24 -4
-47 -5 -50 -2 -8 8 -115 8 -115 -1 0 -4 -8 -3 -18 2 -11 6 -24 6 -34 0 -11 -6
-19 -6 -23 1 -4 7 -12 7 -24 0 -10 -5 -21 -7 -25 -3 -8 9 -116 9 -116 1 0 -4
-11 -3 -25 2 -15 6 -27 6 -30 0 -3 -5 -12 -7 -19 -4 -22 8 -96 10 -96 2 0 -4
-10 -4 -22 1 -12 4 -37 5 -55 1 -17 -4 -34 -5 -37 -2 -9 8 -116 8 -116 -1 0
-4 -8 -3 -18 2 -11 6 -24 6 -34 0 -11 -6 -19 -6 -23 1 -4 7 -12 7 -24 0 -10
-5 -21 -7 -25 -3 -8 9 -116 9 -116 1 0 -4 -11 -3 -25 2 -15 6 -27 6 -30 0 -3
-5 -12 -7 -19 -4 -22 8 -96 10 -96 2 0 -4 -11 -4 -23 1 -13 5 -30 5 -37 1 -8
-5 -21 -5 -30 0 -9 5 -23 4 -33 -1 -11 -7 -17 -7 -17 0 0 7 -8 7 -26 1 -14 -6
-23 -6 -20 -2 5 9 -69 6 -84 -3 -6 -3 -10 -3 -10 2 0 4 -25 8 -55 8 -30 0 -55
-4 -55 -8 0 -4 -8 -3 -18 2 -11 6 -24 6 -34 0 -11 -6 -19 -6 -23 1 -4 7 -12 7
-25 0 -10 -6 -21 -7 -23 -3 -6 9 -64 9 -73 0 -4 -3 -15 -2 -25 3 -12 7 -20 7
-24 0 -4 -6 -12 -7 -18 -3 -13 8 -86 8 -94 -1 -3 -2 -15 -1 -28 4 -14 5 -26 5
-33 -2 -6 -6 -12 -6 -16 1 -5 8 -13 8 -27 1 -12 -7 -19 -7 -19 -1 0 7 -8 7
-22 2 -13 -5 -32 -5 -43 -1 -11 4 -25 3 -32 -2 -7 -6 -14 -5 -18 2 -3 6 -11 8
-16 4 -15 -9 -69 -11 -75 -3 -2 4 -18 4 -34 -1 -17 -5 -30 -6 -30 -2 0 4 -25
7 -55 7 -30 0 -55 -3 -55 -7 0 -4 -11 -3 -25 2 -16 6 -25 6 -25 0 0 -6 -9 -6
-23 -1 -14 5 -30 5 -40 0 -9 -6 -17 -6 -17 -2 0 4 -25 8 -55 8 -30 0 -55 -3
-55 -7 0 -4 -11 -3 -25 2 -16 6 -25 6 -25 0 0 -6 -9 -6 -25 0 -15 6 -26 6 -30
-1 -4 -5 -12 -6 -18 -2 -13 8 -86 8 -94 -1 -3 -2 -15 -1 -28 4 -14 5 -26 5
-33 -2 -6 -6 -12 -6 -16 1 -5 8 -13 8 -27 1 -12 -7 -19 -7 -19 -1 0 7 -8 7
-22 2 -13 -5 -33 -5 -45 0 -13 5 -25 4 -29 -2 -4 -7 -10 -7 -18 0 -7 6 -18 6
-25 1 -8 -4 -19 -6 -25 -4 -23 9 -114 9 -109 0 4 -5 1 -6 -6 -1 -7 4 -40 9
-74 11 -73 5 -97 8 -157 19 -52 10 -58 12 -65 15 -3 1 -8 3 -12 4 -42 11 -99
29 -112 35 -9 5 -46 22 -84 40 -37 17 -86 43 -110 58 -23 14 -43 25 -45 24 -1
-1 -9 4 -16 11 -8 7 -24 20 -36 28 -12 8 -39 30 -59 49 -20 18 -45 41 -56 50
-11 9 -45 45 -75 81 -30 36 -57 67 -60 70 -14 14 -50 70 -50 79 0 5 -4 11 -9
13 -15 5 -108 210 -129 283 -32 110 -43 177 -47 271 -1 40 -5 76 -8 81 -3 5
-2 15 3 23 5 9 5 19 -2 27 -7 9 -7 13 2 13 9 0 9 4 2 13 -7 8 -7 18 -2 27 5 9
5 19 -2 27 -7 9 -7 13 2 13 9 0 9 4 2 13 -7 8 -7 18 -2 27 5 9 5 19 -2 27 -7
9 -7 13 2 13 9 0 9 4 2 13 -7 8 -7 18 -2 27 5 9 5 19 -2 27 -7 9 -7 13 2 13 9
0 9 4 2 13 -7 8 -7 18 -2 27 5 9 5 19 -1 27 -7 8 -7 19 1 33 8 14 8 25 1 33
-6 8 -6 18 -1 27 5 9 5 19 -1 27 -7 8 -7 19 1 33 8 14 8 26 2 32 -5 5 -6 26
-2 49 4 22 3 39 -2 39 -5 0 -5 8 -1 18 10 21 10 53 0 69 -5 7 -3 22 3 34 8 13
8 25 2 31 -5 5 -6 26 -2 49 4 22 3 39 -2 39 -5 0 -5 8 -1 18 10 21 10 53 0 69
-5 7 -3 22 3 33 8 14 8 20 0 20 -7 0 -7 6 0 21 8 14 8 24 1 32 -6 8 -6 18 -1
27 5 9 5 19 -1 27 -7 8 -7 19 1 33 8 14 8 26 2 32 -5 5 -6 26 -2 49 4 22 3 39
-2 39 -5 0 -5 8 -1 18 10 21 10 53 0 69 -5 7 -3 22 3 34 8 13 8 25 2 31 -5 5
-6 26 -2 49 4 22 3 39 -2 39 -5 0 -5 8 -1 18 10 21 10 53 0 69 -5 7 -3 22 3
33 8 15 8 25 1 33 -6 8 -6 18 -1 27 5 9 5 19 -2 27 -7 9 -7 13 2 13 9 0 9 4 2
13 -7 8 -7 18 -2 27 5 9 5 19 -2 27 -7 9 -7 13 2 13 9 0 9 4 2 13 -7 8 -7 18
-2 27 5 9 5 19 -2 27 -7 9 -7 13 2 13 9 0 9 4 2 13 -7 8 -7 18 -2 27 5 9 5 19
-2 27 -7 9 -7 13 2 13 9 0 9 4 2 13 -7 8 -7 18 -2 27 5 9 5 19 -2 27 -7 9 -7
13 2 13 9 0 9 4 2 13 -7 8 -7 18 -2 27 5 9 5 19 -2 27 -7 9 -7 13 2 13 9 0 9
4 2 13 -7 8 -7 18 -2 27 5 9 5 19 -2 27 -7 9 -7 13 2 13 9 0 9 4 2 13 -7 8 -7
18 -2 27 5 9 5 19 -2 27 -8 10 -7 13 3 13 9 0 10 3 2 11 -6 6 -7 25 -3 50 4
22 3 39 -2 39 -5 0 -5 8 -1 18 10 21 10 53 0 69 -5 7 -3 22 3 34 8 13 8 25 2
31 -5 5 -6 26 -2 49 4 22 3 39 -2 39 -5 0 -5 8 -1 18 10 21 10 53 0 69 -5 7
-3 22 3 34 8 13 8 25 2 31 -5 5 -6 26 -2 49 4 22 3 39 -2 39 -5 0 -5 8 -1 18
10 21 10 53 0 69 -5 7 -3 22 3 34 8 13 8 25 2 31 -5 5 -6 26 -2 49 4 22 3 39
-2 39 -5 0 -5 8 -1 18 10 21 10 53 0 69 -5 7 -3 22 3 34 8 13 8 25 2 31 -5 5
-6 26 -2 49 4 22 3 39 -2 39 -5 0 -5 8 -1 18 10 21 10 53 0 69 -5 7 -3 22 3
34 8 14 8 25 2 31 -5 5 -6 24 -2 44 4 19 4 37 -1 40 -5 3 -5 13 1 23 6 12 5
22 -2 29 -9 9 -9 12 1 12 10 0 11 3 3 13 -7 8 -7 18 -2 27 5 9 5 19 -2 27 -7
9 -7 13 2 13 9 0 9 4 2 13 -7 8 -7 18 -2 27 5 9 5 19 -2 27 -7 9 -7 13 2 13 9
0 9 4 2 13 -7 8 -7 18 -2 27 5 9 5 19 -2 27 -7 9 -7 13 2 13 9 0 9 4 2 13 -7
8 -7 18 -2 27 5 9 5 19 -2 27 -7 9 -7 13 2 13 9 0 9 4 2 13 -7 8 -7 18 -2 27
5 9 5 19 -2 27 -7 9 -7 13 2 13 9 0 9 4 2 13 -7 8 -7 18 -2 27 5 9 5 19 -2 27
-7 9 -7 13 2 13 9 0 9 4 2 13 -7 8 -7 18 -2 27 5 9 5 19 -1 27 -7 8 -7 19 1
33 8 14 8 25 1 33 -6 8 -6 18 -1 27 5 9 5 19 -1 27 -7 8 -7 19 1 33 8 14 8 26
2 32 -5 5 -6 26 -2 49 4 22 3 39 -2 39 -5 0 -5 8 -1 18 10 21 10 53 0 69 -5 7
-3 22 3 34 8 13 8 25 2 31 -5 5 -6 26 -2 49 4 22 3 39 -2 39 -5 0 -5 8 -1 18
10 21 10 53 0 69 -5 7 -3 22 3 33 8 14 8 20 0 20 -7 0 -7 6 0 21 8 14 8 24 1
32 -6 8 -6 18 -1 27 5 9 5 19 -1 27 -7 8 -7 19 1 33 8 14 8 26 2 32 -5 5 -6
26 -2 49 4 22 3 39 -2 39 -5 0 -5 8 -1 18 10 21 10 53 0 69 -5 7 -3 22 3 34 8
13 8 25 2 31 -5 5 -6 26 -2 49 4 22 3 39 -2 39 -5 0 -5 8 -1 18 10 21 10 53 0
69 -5 7 -3 22 3 33 8 15 8 25 1 33 -6 8 -6 18 -1 27 5 9 5 19 -2 27 -7 9 -7
13 2 13 9 0 9 4 2 13 -7 8 -7 18 -2 27 5 9 5 19 -2 27 -7 9 -7 13 2 13 9 0 9
4 2 13 -7 8 -7 18 -2 27 5 9 5 19 -2 27 -7 9 -7 13 2 13 9 0 9 4 2 13 -7 8 -7
18 -2 27 5 9 5 19 -2 27 -7 9 -7 13 2 13 9 0 9 4 2 13 -7 8 -7 18 -2 27 5 9 5
19 -2 27 -7 9 -7 13 2 13 9 0 9 4 2 13 -7 8 -7 18 -2 27 5 9 5 19 -2 27 -8 10
-7 13 3 13 10 0 10 3 1 12 -7 7 -8 17 -2 29 7 11 7 20 0 24 -5 3 -7 12 -4 19
6 15 -5 25 -21 20z"/>
<path d="M7748 5345 c-2 -2 -23 -6 -48 -9 -25 -3 -54 -8 -65 -10 -37 -7 -139
-52 -185 -81 -51 -32 -167 -147 -181 -179 -5 -11 -13 -28 -19 -36 -15 -24 -53
-113 -57 -135 -1 -11 -7 -42 -12 -68 -14 -80 -3 -226 20 -269 5 -10 7 -18 4
-18 -3 0 13 -37 36 -81 28 -53 64 -103 104 -143 76 -76 79 -78 162 -121 63
-33 87 -42 138 -50 11 -2 20 -4 20 -5 0 -10 156 -15 205 -5 19 3 43 7 52 9 10
1 21 5 24 9 4 4 15 7 24 7 26 0 151 69 203 113 80 66 178 218 192 297 3 14 8
36 11 50 9 38 11 203 3 221 -4 8 -10 29 -13 45 -2 16 -5 30 -6 32 -2 1 -3 5
-4 10 -1 4 -12 29 -24 56 -12 27 -22 52 -22 57 0 5 -4 9 -8 9 -5 0 -15 12 -23
28 -13 26 -103 120 -145 152 -62 47 -186 96 -265 105 -105 11 -118 12 -121 10z"/>
</g>
</svg>
