<svg width="640" height="446" viewBox="0 0 640 446" fill="none" xmlns="http://www.w3.org/2000/svg">
<path fill-rule="evenodd" clip-rule="evenodd" d="M222 1.61589C149.946 17.1936 96 81.2677 96 158C96 160.7 96.1 163.4 96.2 166.1C40.2 185.8 0 239.2 0 302C0 381.5 64.5 446 144 446H512C582.7 446 640 388.7 640 318C640 262.792 605 215.698 556 197.789V306.25C556 339.757 528.768 367 495.273 367H282.727C249.232 367 222 339.757 222 306.25V1.61589ZM282.727 0.219238C330.616 8.264 371.255 37.5723 394.7 78.1997C409.9 67.9997 428.3 61.9997 448 61.9997C465.184 61.9997 481.316 66.5198 495.273 74.4353V245.5H282.727V0.219238ZM410.47 284.772C416.165 290.468 419.364 298.194 419.364 306.25C419.364 314.306 416.165 322.032 410.47 327.728C404.776 333.425 397.053 336.625 389 336.625C380.947 336.625 373.224 333.425 367.53 327.728C361.835 322.032 358.636 314.306 358.636 306.25C358.636 298.194 361.835 290.468 367.53 284.772C373.224 279.075 380.947 275.875 389 275.875C397.053 275.875 404.776 279.075 410.47 284.772Z" fill="url(#paint0_linear_209_31)"/>
<defs>
<linearGradient id="paint0_linear_209_31" x1="131" y1="-6.28146e-06" x2="609" y2="481" gradientUnits="userSpaceOnUse">
<stop stop-color="#479788"/>
<stop offset="1" stop-color="#90855D"/>
</linearGradient>
</defs>
</svg>
