<svg width="129" height="132" viewBox="0 0 129 132" fill="none" xmlns="http://www.w3.org/2000/svg">
<path d="M0 65.6727C0 64.1886 0.485876 62.89 1.51836 61.8387C2.55085 60.8493 3.82627 60.3546 5.16243 60.3546H17.5523C18.9492 60.3546 20.1031 60.8493 21.0749 61.9006C21.9859 62.9518 22.4717 64.1886 22.4717 65.6727C22.4717 67.1568 22.0466 68.3936 21.1356 69.4449C20.2246 70.4961 19.0099 70.9908 17.613 70.9908H5.22316C3.82627 70.9908 2.61158 70.4961 1.5791 69.4449C0.546612 68.3936 0 67.1568 0 65.6727ZM17.3701 108.527C17.3701 107.105 17.8559 105.868 18.7669 104.755L27.6949 95.9119C28.6059 94.9224 29.8206 94.4896 31.2782 94.4896C32.7359 94.4896 33.9506 94.9843 34.9223 95.9119C35.8941 96.8394 36.3799 98.0144 36.3799 99.4367C36.3799 100.921 35.8941 102.281 34.9223 103.394L26.298 112.175C23.8079 114.154 21.3178 114.154 18.8277 112.175C17.8559 111.186 17.3701 109.949 17.3701 108.527ZM17.3701 22.9422C17.3701 21.5199 17.8559 20.2831 18.7669 19.17C19.9816 18.1187 21.2571 17.624 22.654 17.624C23.9901 17.624 25.2048 18.1187 26.2373 19.1082L34.9223 28.1985C35.8941 29.126 36.3799 30.3628 36.3799 31.8469C36.3799 33.3311 35.8941 34.5678 34.9223 35.5573C33.9506 36.5467 32.7359 37.0414 31.2782 37.0414C29.8206 37.0414 28.6059 36.5467 27.6949 35.5573L18.8277 26.7143C17.8559 25.7249 17.3701 24.4263 17.3701 22.9422ZM32.8573 65.6727C32.8573 59.9217 34.2542 54.5418 37.1088 49.5947C39.9633 44.6476 43.7895 40.6899 48.709 37.7835C53.6285 34.877 58.8517 33.4547 64.5 33.4547C68.7514 33.4547 72.8206 34.3205 76.7684 36.052C80.6554 37.7835 84.0565 40.0715 86.8503 42.9779C89.7048 45.8843 91.952 49.2855 93.5918 53.2431C95.2316 57.2008 96.0819 61.4058 96.0819 65.7346C96.0819 71.5474 94.685 76.9274 91.8305 81.8745C88.976 86.8216 85.1497 90.7174 80.291 93.6238C75.4322 96.5302 70.1483 97.9525 64.4393 97.9525C58.7302 97.9525 53.4463 96.5302 48.5876 93.6238C43.7288 90.7174 39.9025 86.8216 37.048 81.8745C34.315 76.8655 32.8573 71.4856 32.8573 65.6727ZM43.1822 65.6727C43.1822 71.7329 45.2472 76.8655 49.4379 81.1324C53.5678 85.3993 58.6088 87.5636 64.5607 87.5636C70.5127 87.5636 75.5537 85.3993 79.7443 81.1324C83.935 76.8655 86.0607 71.7329 86.0607 65.6727C86.0607 59.7362 83.935 54.6654 79.7443 50.3986C75.5537 46.1935 70.5127 44.091 64.5607 44.091C58.6695 44.091 53.6285 46.1935 49.4986 50.3986C45.2472 54.6654 43.1822 59.7362 43.1822 65.6727ZM59.3376 113.783C59.3376 112.299 59.8234 111.062 60.8559 110.073C61.8884 109.083 63.1031 108.589 64.5 108.589C65.9576 108.589 67.233 109.083 68.2048 110.073C69.1766 111.062 69.6624 112.299 69.6624 113.783V126.089C69.6624 127.573 69.1765 128.872 68.1441 129.923C67.1116 130.974 65.8969 131.469 64.5 131.469C63.1031 131.469 61.8277 130.974 60.8559 129.923C59.8234 128.872 59.3376 127.573 59.3376 126.089V113.783ZM59.3376 17.9332V5.31813C59.3376 3.89584 59.8234 2.65907 60.8559 1.60781C61.8884 0.55655 63.1031 0 64.5607 0C66.0184 0 67.1723 0.49471 68.2048 1.54597C69.2373 2.59723 69.7232 3.834 69.7232 5.25629V17.9332C69.7232 19.3555 69.2373 20.5305 68.2048 21.5199C67.1723 22.5093 65.9576 22.9422 64.5607 22.9422C63.1638 22.9422 61.8884 22.4475 60.9167 21.5199C59.9449 20.5923 59.3376 19.3555 59.3376 17.9332ZM92.863 99.4367C92.863 98.0144 93.3489 96.8394 94.2599 95.9737C95.1709 94.9843 96.3249 94.5514 97.661 94.5514C99.1186 94.5514 100.333 95.0461 101.305 95.9737L110.172 104.817C111.144 105.868 111.63 107.166 111.63 108.589C111.63 110.011 111.144 111.248 110.172 112.237C107.743 114.154 105.314 114.154 102.884 112.237L94.2599 103.456C93.3489 102.343 92.863 101.044 92.863 99.4367ZM92.863 31.9088C92.863 30.3628 93.3489 29.126 94.2599 28.2603L102.884 19.17C103.917 18.1806 105.131 17.6859 106.467 17.6859C107.925 17.6859 109.14 18.1806 110.112 19.2318C111.144 20.2831 111.63 21.5199 111.63 22.9422C111.63 24.4881 111.144 25.7867 110.172 26.7762L101.305 35.6191C100.212 36.6085 98.9972 37.1032 97.661 37.1032C96.2641 37.1032 95.1709 36.6085 94.2599 35.6191C93.3489 34.6297 92.863 33.3929 92.863 31.9088ZM106.589 65.6727C106.589 64.1886 107.075 62.9518 108.047 61.8387C109.018 60.8493 110.172 60.3546 111.508 60.3546H123.777C125.174 60.3546 126.388 60.9111 127.421 61.9624C128.453 63.0137 129 64.2504 129 65.6727C129 67.095 128.453 68.3318 127.421 69.383C126.388 70.4343 125.174 70.929 123.777 70.929H111.508C110.112 70.929 108.897 70.4343 107.986 69.383C107.075 68.3318 106.589 67.1568 106.589 65.6727Z" fill="white"/>
</svg>
