<svg width="129" height="128" viewBox="0 0 129 128" fill="none" xmlns="http://www.w3.org/2000/svg">
<path d="M0 79.9826C4.35358 79.7819 8.03738 78.1086 11.0514 74.9628C14.0654 71.8171 15.6059 68.0689 15.6059 63.7184C15.6059 68.0689 17.0794 71.8171 20.0935 74.9628C23.1075 78.1086 26.7913 79.7819 31.1449 79.9826C26.7913 80.1834 23.1075 81.8567 20.0935 85.0025C17.0794 88.1482 15.6059 91.8964 15.6059 96.2469C15.6059 91.8964 14.1324 88.1482 11.0514 85.0025C8.03738 81.8567 4.35358 80.1834 0 79.9826ZM15.6059 31.7923C24.0452 31.3907 31.2118 28.1111 37.1059 21.9534C43 15.7957 45.947 8.50025 45.947 0C45.947 8.50025 48.8941 15.7957 54.7882 21.9534C60.6822 28.1111 67.8489 31.3237 76.3551 31.7923C70.796 32.06 65.7056 33.5994 61.0171 36.5444C56.3956 39.4224 52.7118 43.3044 49.9657 48.1234C47.2866 52.9425 45.947 58.0962 45.947 63.7184C45.947 55.2181 43 47.8557 37.1059 41.6981C31.2118 35.4735 24.0452 32.1938 15.6059 31.7923ZM37.8427 103.877C44.2056 103.609 49.6308 101.133 54.0514 96.5146C58.472 91.8964 60.6822 86.408 60.6822 79.9826C60.6822 86.408 62.8925 91.8964 67.3131 96.5146C71.7337 101.133 77.0919 103.609 83.4548 103.877C77.0919 104.145 71.7337 106.621 67.3131 111.239C62.8925 115.858 60.6822 121.346 60.6822 127.771C60.6822 121.346 58.472 115.858 54.0514 111.239C49.5639 106.621 44.2056 104.212 37.8427 103.877ZM83.4548 72.1517C89.8178 71.884 95.176 69.4075 99.5966 64.7893C104.017 60.171 106.16 54.6827 106.16 48.1904C106.16 54.6158 108.371 60.1041 112.791 64.7224C117.212 69.3406 122.637 71.8171 129 72.0848C122.637 72.3525 117.212 74.829 112.791 79.4472C108.371 84.0654 106.16 89.5538 106.16 95.9792C106.16 89.5538 103.95 84.0654 99.5966 79.4472C95.176 74.8959 89.8178 72.4194 83.4548 72.1517Z" fill="white"/>
</svg>
