<svg width="129" height="88" viewBox="0 0 129 88" fill="none" xmlns="http://www.w3.org/2000/svg">
<path d="M0 55.5835C0 53.6697 0.672313 52.172 1.9329 50.9238C3.27752 49.6757 5.04234 49.0932 7.3114 49.0932H55.2977C57.5668 49.0932 59.3316 49.6757 60.6762 50.9238C62.0208 52.172 62.6091 53.6697 62.6091 55.5835C62.6091 57.8302 61.9368 59.6607 60.6762 60.9089C59.4156 62.157 57.5668 62.8227 55.2977 62.8227H7.3114C5.04234 62.8227 3.27752 62.157 1.9329 60.9089C0.588274 59.6607 0 57.9134 0 55.5835ZM0 6.40709C0 4.57649 0.672313 2.99552 1.9329 1.8306C3.27752 0.582464 5.04234 0 7.3114 0H32.187C34.456 0 36.2208 0.582464 37.5655 1.8306C38.9101 2.99552 39.5824 4.57649 39.5824 6.40709C39.5824 8.65372 38.9101 10.4011 37.5655 11.7325C36.2208 13.0638 34.456 13.7295 32.187 13.7295H7.3114C5.04234 13.7295 3.27752 13.0638 1.9329 11.8157C0.588274 10.5675 0 8.65372 0 6.40709ZM8.31987 80.2133C8.31987 78.3827 9.07623 76.7186 10.673 75.2208C12.1857 73.723 13.9505 72.891 15.7153 72.891C17.9003 72.891 19.5811 73.6398 20.9257 75.1376C22.2704 76.6354 22.9427 78.2995 22.9427 80.2133C22.9427 82.46 22.2704 84.2906 21.0098 85.6219C19.7492 86.9533 17.9844 87.5357 15.7153 87.5357C13.7824 87.5357 12.0176 86.87 10.5889 85.5387C8.99218 84.1242 8.31987 82.3768 8.31987 80.2133ZM20.2534 30.8705C20.2534 28.9567 20.8417 27.2093 22.1023 25.7947C23.3629 24.297 24.8756 23.5481 26.6404 23.5481C28.8254 23.5481 30.6743 24.297 32.0189 25.7947C33.3635 27.2925 34.0358 28.9567 34.0358 30.8705C34.0358 33.1171 33.3635 34.9477 32.1029 36.2791C30.7583 37.6104 28.9935 38.1929 26.6404 38.1929C24.7075 38.1929 23.1948 37.5272 22.0182 36.1959C20.8417 34.8645 20.2534 33.1171 20.2534 30.8705ZM28.5733 80.2133C28.5733 78.2995 29.2456 76.5521 30.5902 75.1376C31.9349 73.723 33.7837 72.891 35.9687 72.891H68.1557L75.5511 80.2133C75.5511 82.3768 74.7948 84.1242 73.2821 85.5387C71.7694 86.9533 70.0886 87.5357 68.1557 87.5357H35.9687C33.6997 87.5357 31.8508 86.87 30.5062 85.5387C29.1616 84.2074 28.5733 82.46 28.5733 80.2133ZM39.6665 30.8705C39.6665 29.0399 40.4228 27.3757 42.0195 25.878C43.5322 24.3802 45.2971 23.5481 47.0619 23.5481H79.2489C81.4339 23.5481 83.1987 24.297 84.5433 25.7947C85.8879 27.2925 86.5603 28.9567 86.5603 30.8705C86.5603 33.1171 85.8879 34.9477 84.6274 36.2791C83.2827 37.6104 81.5179 38.1929 79.2489 38.1929H47.0619C45.129 38.1929 43.3642 37.5272 41.9355 36.1959C40.4228 34.8645 39.6665 33.1171 39.6665 30.8705ZM46.0534 6.40709C46.0534 4.57649 46.7257 2.99552 48.0704 1.8306C49.415 0.665673 51.1798 0 53.4489 0H101.435C103.368 0 105.049 0.665675 106.562 1.91381C108.074 3.16194 108.831 4.6597 108.831 6.40709C108.831 8.57051 108.074 10.4011 106.562 11.7325C105.049 13.0638 103.368 13.7295 101.435 13.7295H53.4489C51.1798 13.7295 49.3309 13.0638 47.9863 11.7325C46.6417 10.4011 46.0534 8.65372 46.0534 6.40709ZM68.1557 55.5835C68.1557 53.8361 68.9121 52.2552 70.4248 51.007C71.9375 49.7589 73.6182 49.0932 75.5511 49.0932C77.484 49.0932 79.1648 49.7589 80.6775 51.007C82.1902 52.2552 82.9466 53.8361 82.9466 55.5835C82.9466 57.7469 82.1902 59.4943 80.6775 60.8257C79.1648 62.157 77.484 62.8227 75.5511 62.8227C73.6182 62.8227 71.8534 62.157 70.4248 60.8257C68.9121 59.5775 68.1557 57.8302 68.1557 55.5835ZM81.0977 80.2133C81.0977 78.2995 81.77 76.5521 83.1147 75.1376C84.4593 73.6398 86.2241 72.891 88.4091 72.891H104.124C106.309 72.891 108.074 73.6398 109.419 75.0544C110.764 76.4689 111.436 78.2163 111.436 80.2133C111.436 82.46 110.764 84.2906 109.503 85.6219C108.242 86.9533 106.393 87.5357 104.124 87.5357H88.4091C86.1401 87.5357 84.3752 86.87 83.0306 85.6219C81.77 84.2906 81.0977 82.46 81.0977 80.2133ZM88.4091 55.5835C88.4091 53.8361 89.1655 52.2552 90.6782 51.007C92.1909 49.7589 93.8717 49.0932 95.8046 49.0932H121.605C123.453 49.0932 124.966 49.7589 126.143 51.007C127.319 52.2552 127.992 53.7529 127.992 55.5835C127.992 57.8302 127.403 59.5775 126.227 60.9089C125.05 62.2402 123.537 62.8227 121.605 62.8227H95.8046C93.8717 62.8227 92.1068 62.157 90.6782 60.8257C89.1655 59.5775 88.4091 57.8302 88.4091 55.5835ZM92.1068 30.8705C92.1068 29.0399 92.8632 27.3757 94.4599 25.878C95.9726 24.3802 97.7375 23.5481 99.5023 23.5481H115.974C117.739 23.5481 119.251 24.297 120.512 25.7947C121.773 27.2925 122.445 28.9567 122.445 30.8705C122.445 33.1171 121.857 34.8645 120.596 36.1959C119.42 37.5272 117.823 38.1929 115.974 38.1929H99.5023C97.5694 38.1929 95.8046 37.5272 94.3759 36.1959C92.8632 34.8645 92.1068 33.1171 92.1068 30.8705ZM115.134 6.40709C115.134 4.57649 115.722 3.07873 116.982 1.8306C118.243 0.582464 119.756 0 121.605 0C123.874 0 125.638 0.582464 126.983 1.8306C128.328 2.99552 129 4.57649 129 6.40709C129 8.65372 128.328 10.4011 126.983 11.7325C125.638 13.0638 123.874 13.7295 121.605 13.7295C119.672 13.7295 118.159 13.0638 116.982 11.7325C115.722 10.4011 115.134 8.65372 115.134 6.40709Z" fill="white"/>
</svg>
