<svg width="129" height="128" viewBox="0 0 129 128" fill="none" xmlns="http://www.w3.org/2000/svg">
<path d="M0 76.8521C0 80.9855 1.00931 84.8785 3.07601 88.4352C5.09463 91.9918 7.88227 94.8755 11.4389 97.0384C14.9475 99.2012 18.8405 100.355 22.9739 100.451C23.5026 100.451 23.791 100.162 23.791 99.6337V93.2414C23.791 92.6647 23.5026 92.3282 22.9739 92.3282C18.8886 92.136 15.38 90.5018 12.4963 87.4258C9.61252 84.3498 8.17064 80.8413 8.17064 76.804C8.17064 72.8629 9.51639 69.4024 12.256 66.4225C14.9955 63.4907 18.3118 61.7604 22.3491 61.2798L24.8964 60.9914C25.4732 60.9914 25.7615 60.703 25.7615 60.0782L26.1461 57.627C26.6747 52.3882 28.8376 48.0145 32.6826 44.506C36.5276 40.9974 41.0935 39.2671 46.3804 39.2671C51.6192 39.2671 56.1852 40.9974 60.0782 44.506C64.0194 48.0145 66.2303 52.3402 66.7109 57.4829L67.0473 60.2705C67.0473 60.7992 67.3357 61.0875 67.8644 61.0875H75.6025C79.9281 61.0875 83.6289 62.6256 86.7049 65.7016C89.7809 68.7776 91.3189 72.4303 91.3189 76.7079C91.3189 80.7451 89.877 84.2537 86.9933 87.3297C84.1095 90.3577 80.601 91.9918 76.5637 92.2321C75.987 92.2321 75.6505 92.5205 75.6505 93.1453V99.5376C75.6505 100.066 75.9389 100.355 76.5637 100.355C82.956 100.162 88.339 97.7593 92.8089 93.1453C97.2787 88.5313 99.4896 83.1002 99.4896 76.756C99.4896 73.1032 98.8167 69.883 97.4229 66.9992C101.028 62.5294 102.95 57.2425 102.95 51.2347C102.95 46.7168 101.845 42.5354 99.5857 38.6904C97.3267 34.8454 94.2507 31.7694 90.4057 29.5104C86.5607 27.2515 82.3312 26.146 77.8133 26.146C70.4117 26.146 64.2116 28.9337 59.2131 34.4609C55.32 32.3461 50.9944 31.2887 46.2843 31.2887C39.5075 31.2887 33.5477 33.4035 28.3089 37.5849C23.07 41.7664 19.7537 47.1494 18.2638 53.6379C12.8808 54.9836 8.50708 57.7712 5.09464 62.0488C1.68219 66.3744 0 71.2768 0 76.8521ZM30.4717 96.3174C30.4717 97.4709 30.8562 98.4322 31.6252 99.2492C32.3942 100.066 33.3074 100.451 34.4609 100.451C35.5663 100.451 36.5276 100.066 37.2966 99.2492C38.0656 98.4322 38.4501 97.4709 38.4501 96.3174C38.4501 95.212 38.0656 94.2988 37.2966 93.5298C36.5276 92.7608 35.6144 92.3763 34.4609 92.3763C33.3554 92.3763 32.3942 92.7608 31.6252 93.5298C30.8562 94.2988 30.4717 95.26 30.4717 96.3174ZM30.4717 113.764C30.4717 114.773 30.8562 115.687 31.6252 116.504C32.4903 117.273 33.4035 117.657 34.4128 117.657C35.5663 117.657 36.4795 117.273 37.2485 116.552C38.0175 115.783 38.354 114.87 38.354 113.764C38.354 112.611 37.9694 111.697 37.2004 110.928C36.4314 110.159 35.5183 109.823 34.3648 109.823C33.2593 109.823 32.2981 110.208 31.5291 110.928C30.8562 111.649 30.4717 112.611 30.4717 113.764ZM40.3245 17.9754C40.3245 19.1289 40.709 20.0902 41.478 20.8111L44.6501 23.9832C45.4191 24.7522 46.2843 25.1848 47.1975 25.1848C48.2068 25.329 49.168 24.9925 50.1293 24.1274C51.0905 23.2623 51.5712 22.253 51.5712 21.0995C51.5712 19.946 51.1867 18.8886 50.4177 18.0235L47.3417 15.0917C46.6207 14.2746 45.7075 13.8901 44.554 13.8901C43.3525 13.8901 42.3431 14.2746 41.5261 15.0917C40.709 15.8607 40.3245 16.8219 40.3245 17.9754ZM45.7556 105.545C45.7556 106.603 46.1401 107.564 46.9091 108.429C47.6781 109.198 48.6393 109.583 49.6967 109.583C50.8502 109.583 51.8115 109.198 52.5805 108.429C53.3495 107.66 53.782 106.699 53.782 105.545C53.782 104.44 53.3975 103.479 52.5805 102.662C51.7634 101.845 50.8022 101.46 49.6967 101.46C48.5913 101.46 47.6781 101.845 46.9091 102.662C46.1401 103.479 45.7556 104.44 45.7556 105.545ZM45.7556 88.2429C45.7556 89.3483 46.1401 90.2615 46.9091 91.0305C47.6781 91.7995 48.6393 92.184 49.6967 92.184C50.8502 92.184 51.8115 91.7995 52.5805 91.0305C53.3975 90.2615 53.782 89.3484 53.782 88.1948C53.782 87.0894 53.3975 86.1282 52.5805 85.3592C51.7634 84.5902 50.8022 84.2056 49.6967 84.2056C48.5913 84.2056 47.6781 84.5902 46.9091 85.3592C46.1401 86.1282 45.7556 87.1375 45.7556 88.2429ZM45.7556 123.136C45.7556 124.194 46.1401 125.107 46.9091 125.876C47.7262 126.693 48.6393 127.077 49.6967 127.077C50.8502 127.077 51.8115 126.693 52.5805 125.972C53.3975 125.203 53.782 124.29 53.782 123.136C53.782 121.983 53.3975 121.022 52.5805 120.253C51.7634 119.436 50.8022 119.051 49.6967 119.051C48.6393 119.051 47.7262 119.436 46.9091 120.253C46.1401 121.07 45.7556 122.031 45.7556 123.136ZM61.2317 96.3174C61.2317 97.4709 61.6162 98.4322 62.3852 99.2492C63.1542 100.066 64.1155 100.451 65.2209 100.451C66.3264 100.451 67.2876 100.066 68.0566 99.2492C68.8256 98.4322 69.2101 97.4709 69.2101 96.3174C69.2101 95.212 68.8256 94.2988 68.0566 93.5298C67.2876 92.7608 66.3744 92.3763 65.2209 92.3763C64.0674 92.3763 63.1542 92.7608 62.3852 93.5298C61.6162 94.2988 61.2317 95.26 61.2317 96.3174ZM61.2317 113.764C61.2317 114.773 61.6162 115.687 62.3372 116.504C63.2023 117.273 64.1636 117.657 65.2209 117.657C66.3744 117.657 67.2876 117.273 68.0566 116.552C68.8256 115.783 69.1621 114.87 69.1621 113.764C69.1621 112.611 68.7776 111.697 68.0086 110.928C67.2396 110.159 66.3264 109.823 65.1729 109.823C64.0194 109.823 63.0581 110.208 62.2891 110.977C61.6162 111.697 61.2317 112.659 61.2317 113.764ZM65.9419 39.0268C69.2582 35.8547 73.1993 34.2686 77.8133 34.2686C82.4754 34.2686 86.4646 35.9508 89.7329 39.2671C93.0492 42.5835 94.6833 46.6207 94.6833 51.2347C94.6833 54.2146 93.8662 57.1945 92.2321 60.0782C87.6662 55.4642 82.0909 53.1572 75.5544 53.1572H74.0164C72.5745 47.5339 69.883 42.8238 65.9419 39.0268ZM73.6319 13.9381C73.6319 15.0436 74.0164 16.0048 74.8335 16.7258C75.6505 17.4467 76.6118 17.8312 77.7653 17.8312C78.9188 17.8312 79.832 17.4467 80.601 16.7258C81.37 15.9568 81.7064 15.0436 81.7064 13.9381V4.13338C81.7064 2.97988 81.3219 2.01863 80.5529 1.20156C79.7839 0.384501 78.9188 0 77.8133 0C76.7079 0 75.7466 0.432564 74.9296 1.24963C74.1125 2.06669 73.68 3.02794 73.68 4.13338V13.9381H73.6319ZM100.162 24.8484C100.162 25.9538 100.547 26.915 101.364 27.684C102.085 28.4531 102.998 28.8376 104.056 28.9337C105.113 29.0298 106.122 28.5972 107.035 27.684L113.908 20.8111C114.773 19.946 115.158 18.9847 115.158 17.8793C115.158 16.7258 114.725 15.7645 113.908 14.9475C113.091 14.1304 112.13 13.7459 111.025 13.7459C109.967 13.7459 109.054 14.1304 108.237 14.9475L101.364 21.9646C100.547 22.7336 100.162 23.6949 100.162 24.8484ZM104.007 81.5622C104.007 82.7638 104.392 83.7731 105.161 84.5421L108.237 87.57C109.39 88.339 110.448 88.7235 111.313 88.7235C112.322 88.7235 113.187 88.291 114.004 87.4739C114.822 86.6568 115.206 85.6475 115.206 84.5421C115.206 83.4367 114.773 82.5235 113.956 81.7545L110.977 78.6304C110.111 77.8614 109.15 77.4769 108.045 77.4769C106.939 77.4769 105.978 77.8614 105.209 78.6784C104.392 79.4475 104.007 80.4087 104.007 81.5622ZM110.977 51.2347C110.977 52.3882 111.409 53.3014 112.226 54.0704C113.043 54.9355 114.053 55.3681 115.206 55.3681H124.915C126.02 55.3681 126.981 54.9836 127.798 54.1665C128.615 53.3495 129 52.3882 129 51.2347C129 50.0812 128.615 49.12 127.798 48.351C126.981 47.582 126.02 47.1494 124.915 47.1494H115.206C114.053 47.1494 113.091 47.5339 112.226 48.351C111.361 49.168 110.977 50.1293 110.977 51.2347Z" fill="white"/>
</svg>
