<svg width="129" height="136" viewBox="0 0 129 136" fill="none" xmlns="http://www.w3.org/2000/svg">
<path d="M0 70.1772V67.9636C0.236372 61.2629 2.4819 55.34 6.67751 50.1949C10.8731 45.0498 16.1915 41.6995 22.5144 40.2038C24.3463 32.0673 28.5419 25.3667 34.9831 20.1019C41.4242 14.8371 48.8699 12.2645 57.202 12.2645C61.5749 12.2645 66.2432 13.162 71.2661 15.0166C72.9208 12.2645 74.8708 9.87147 77.1164 7.83735C79.3619 5.80323 81.6665 4.24772 84.0893 3.11101C86.5121 2.03412 88.8168 1.19654 91.1214 0.717924C93.3669 0.239308 95.6125 0 97.7989 0C100.104 0 102.526 0.239309 105.126 0.777753L109.854 2.27343C110.563 2.63239 110.858 3.05118 110.681 3.64945L109.972 7.35873C109.558 9.09371 109.381 10.7689 109.381 12.3842C109.381 14.2388 109.677 16.0935 110.268 18.0678C110.858 19.9822 111.686 21.8967 112.868 23.7513C114.049 25.606 115.586 27.2811 117.595 28.8366C119.604 30.3922 121.85 31.5289 124.45 32.3066L128.114 33.3237C128.705 33.5032 129 33.8023 129 34.2809C129 34.5202 129 34.6399 128.941 34.6997L127.818 38.7679C126.4 44.8105 123.386 50.0753 118.895 54.4426C121.495 58.9895 122.795 63.8953 122.795 69.1003C122.795 77.1171 120.077 83.9972 114.581 89.7406C109.086 95.5438 102.408 98.5352 94.5488 98.7745C93.8397 98.7745 93.426 98.4155 93.426 97.6378V89.5013C93.426 88.7834 93.7806 88.4244 94.5488 88.4244C99.6899 88.0655 104.004 85.9715 107.549 82.2622C111.095 78.5529 112.868 74.1257 112.868 69.0404C112.868 63.7158 110.977 59.1091 107.136 55.34C103.295 51.5709 98.7444 49.6565 93.3669 49.6565H83.7939C83.1438 49.6565 82.7893 49.2975 82.7893 48.5796L82.3756 45.1096C81.7256 38.7081 78.9482 33.2638 74.1026 28.8965C69.257 24.5291 63.6432 22.3155 57.202 22.3155C50.7609 22.3155 45.088 24.5291 40.3605 28.8965C35.574 33.2638 32.8557 38.7081 32.2648 45.1694L31.8511 48.2804C31.8511 48.9385 31.4375 49.2975 30.6693 49.2975L27.5373 49.7163C22.5735 50.3146 18.437 52.4683 15.1278 56.1178C11.7595 59.8271 10.1049 64.1346 10.1049 69.1003V69.2199L10.164 69.2797H10.2822C10.2822 72.3908 10.9913 75.3821 12.4095 78.1342C13.8278 80.8862 15.7187 83.1596 18.1415 84.9544H18.2006L18.2597 85.0143L18.3188 85.0741C19.6189 86.0313 20.8007 86.6894 21.9826 87.168C23.9918 88.0654 26.06 88.5441 28.3055 88.6039C28.9556 88.6039 29.3101 88.9629 29.3101 89.6209V97.6378C29.3101 98.3557 28.9556 98.7147 28.3055 98.7147C22.8099 98.4754 17.787 96.8002 13.2368 93.8088H13.1777C9.2776 91.2363 6.14567 87.886 3.78195 83.6981C1.41823 79.5102 0.177279 75.0231 0 70.1772ZM32.5011 111.877C32.5011 111.697 32.5602 111.458 32.6193 111.099C32.6784 110.74 32.7375 110.56 32.7375 110.381L33.2694 106.851C33.683 105.415 34.4512 104.398 35.6922 103.68C36.9331 102.962 38.2332 102.843 39.7105 103.202C41.0696 103.62 42.0151 104.458 42.7242 105.655C43.3743 106.911 43.4924 108.167 43.1379 109.424L42.3106 113.013C41.7197 115.586 40.2423 116.902 37.8195 116.902C37.6422 116.902 37.3468 116.902 36.9331 116.842C36.5195 116.782 36.2831 116.782 36.1649 116.782C34.924 116.423 34.0376 115.765 33.4466 114.808C32.7966 113.851 32.5011 112.894 32.5011 111.877ZM36.874 94.2875C36.874 92.8516 37.3468 91.7149 38.2332 90.7577C39.1196 89.8004 40.3014 89.3816 41.7197 89.3816C43.1379 89.3816 44.2607 89.8603 45.2061 90.7577C46.1516 91.6551 46.5653 92.8516 46.5653 94.2875C46.5653 95.6635 46.0925 96.86 45.2061 97.7574C44.3197 98.6548 43.1379 99.1335 41.7197 99.1335C40.3605 99.1335 39.2377 98.6548 38.3514 97.6378C37.4059 96.7404 36.874 95.6037 36.874 94.2875ZM46.5653 130.184C46.5653 129.944 46.6244 129.526 46.8017 128.868L47.5699 125.338C47.9835 123.962 48.8108 122.945 49.9927 122.287C51.2336 121.569 52.4746 121.449 53.7155 121.868C55.0747 122.107 56.1383 122.885 56.8475 124.081C57.5566 125.278 57.7339 126.654 57.3202 128.15L56.552 131.679C55.9611 134.132 54.3656 135.329 51.8246 135.329C51.4109 135.329 50.8791 135.269 50.4063 135.149C49.1063 134.79 48.1608 134.132 47.5108 133.175C46.9198 132.158 46.5653 131.201 46.5653 130.184ZM51.2336 112.774C51.2336 111.398 51.7064 110.261 52.5928 109.304C53.5383 108.347 54.661 107.928 56.0792 107.928C57.4975 107.928 58.6202 108.407 59.5657 109.304C60.5112 110.261 60.9249 111.398 60.9249 112.774C60.9249 114.21 60.4521 115.347 59.5657 116.304C58.6202 117.261 57.4975 117.68 56.0792 117.68C54.7201 117.68 53.5973 117.201 52.6519 116.244C51.7064 115.287 51.2336 114.15 51.2336 112.774ZM54.8974 99.1933C54.8974 98.6548 54.9565 98.1164 55.0747 97.5779L56.4338 92.1935C56.8475 90.8175 57.6748 89.7406 58.8566 89.0227C60.0976 88.3048 61.3385 88.1253 62.6386 88.5441C64.0568 88.9629 65.0614 89.7406 65.7705 90.9372C66.4796 92.1337 66.5978 93.3901 66.1842 94.7063L64.6477 100.091C64.175 101.766 63.3477 102.843 62.2249 103.441C61.1022 104.039 59.8021 104.159 58.443 103.8C57.2611 103.561 56.3747 102.962 55.7838 102.005C55.0747 101.048 54.8383 100.091 54.8974 99.1933ZM71.2071 111.996C71.2071 111.817 71.2071 111.518 71.2661 111.219C71.3252 110.919 71.3252 110.68 71.3252 110.56L71.8571 107.031C72.2707 105.595 73.0389 104.578 74.2799 103.86C75.5208 103.142 76.8209 103.022 78.2982 103.381C79.6574 103.8 80.6619 104.638 81.312 105.834C82.0211 107.09 82.1393 108.347 81.7256 109.603L80.8983 113.193C80.3074 115.825 78.8301 117.141 76.4072 117.141C76.23 117.141 75.9345 117.082 75.5799 117.022C75.2254 116.962 74.9299 116.902 74.7526 116.902C73.5708 116.543 72.6844 115.885 72.0935 114.928C71.5025 113.971 71.2071 113.013 71.2071 111.996ZM75.5799 94.4071C75.5799 92.9713 76.0527 91.8346 76.9391 90.8773C77.8255 89.9201 79.0073 89.5013 80.4256 89.5013C81.8438 89.5013 82.9666 89.9799 83.9121 90.8773C84.8575 91.8346 85.2712 92.9713 85.2712 94.4071C85.2712 95.7831 84.7985 96.9199 83.9121 97.8771C82.9666 98.8343 81.8438 99.2531 80.4256 99.2531C79.0073 99.2531 77.8846 98.7745 76.9982 97.8173C76.1118 96.9199 75.5799 95.7831 75.5799 94.4071ZM79.7755 20.4609C85.9212 25.5462 89.8213 31.828 91.476 39.3662H93.426C100.694 39.3662 107.017 41.6995 112.454 46.4258C114.463 44.5712 115.94 42.537 116.945 40.2038C113.281 38.409 110.149 36.0159 107.431 32.9647C104.772 29.9135 102.763 26.623 101.404 23.0334C100.044 19.4438 99.3944 15.7345 99.3944 11.9056V10.1108H98.0944C94.4306 10.1108 90.9441 11.0082 87.6349 12.803C84.3257 14.5978 81.7256 17.1704 79.7755 20.4609Z" fill="white"/>
</svg>
