<svg width="129" height="134" viewBox="0 0 129 134" fill="none" xmlns="http://www.w3.org/2000/svg">
<path d="M0 68.6898C0 76.5384 2.77356 83.2658 8.26166 88.9309C13.7498 94.5961 20.4771 97.6057 28.3257 97.8417C29.0338 97.8417 29.3879 97.4876 29.3879 96.8385V88.9309C29.3879 88.2818 29.0338 87.9277 28.3257 87.9277C23.3097 87.6917 19.0018 85.6262 15.4611 81.8495C11.9204 78.0727 10.091 73.6468 10.091 68.6898C10.091 63.6738 11.7434 59.3069 15.107 55.6482C18.4707 51.9895 22.6016 49.9241 27.4995 49.511L30.6272 49.0979C31.3943 49.0979 31.8074 48.7438 31.8074 48.0357L32.2205 45.0261C32.8696 38.5348 35.5252 33.1057 40.3051 28.7978C45.0851 24.4899 50.6912 22.3065 57.1825 22.3065C63.6148 22.3065 69.221 24.4899 74.0599 28.7978C78.8989 33.1057 81.6725 38.4758 82.3216 44.849L82.7347 48.2127C82.7347 48.9209 83.0887 49.3339 83.7379 49.3339H93.2978C98.6679 49.3339 103.212 51.2223 107.048 55.0581C110.883 58.8349 112.772 63.3788 112.772 68.6898C112.772 71.9355 111.946 75.0041 110.352 77.8957C108.759 80.7873 106.516 83.1478 103.684 84.9771C100.851 86.8065 97.7827 87.8097 94.478 87.9867C93.7109 87.9867 93.2978 88.3408 93.2978 88.9899V96.8975C93.2978 97.5466 93.7109 97.9007 94.478 97.9007C99.6711 97.7827 104.451 96.3664 108.759 93.7109C113.067 91.0553 116.489 87.5146 118.968 83.0887C121.446 78.6629 122.686 73.8829 122.686 68.7489C122.686 63.5558 121.328 58.5988 118.673 53.9369C123.571 49.57 126.699 44.3769 127.997 38.4758L128.823 34.4629C128.941 34.3449 129 34.2269 129 34.0499C129 33.6958 128.646 33.4007 127.997 33.1057L124.751 32.0435C121.387 31.0403 118.437 29.3879 116.076 27.0274C113.657 24.667 111.946 22.2475 110.942 19.651C109.939 17.1134 109.408 14.5759 109.408 12.0384C109.29 10.7992 109.467 9.14684 109.939 7.19945L110.706 3.77676C110.942 3.18664 110.706 2.71455 109.939 2.41949L105.218 1.0032C102.799 0.354072 100.261 0 97.6057 0C95.4812 0 93.2388 0.236048 90.9963 0.767155C88.7539 1.29826 86.3934 2.06542 83.9739 3.18664C81.5544 4.30787 79.194 5.90119 76.8925 7.9666C74.591 10.032 72.6436 12.4515 70.9913 15.2251C66.2113 13.3957 61.5494 12.5105 57.1235 12.5105C48.8028 12.5105 41.3673 15.107 34.935 20.3001C28.5027 25.4931 24.3129 32.1025 22.4835 40.1871C15.8742 41.8984 10.4451 45.3801 6.25526 50.6322C2.06542 55.7662 0 61.8445 0 68.6898ZM31.9254 110.293C31.9254 111.296 32.2205 112.3 32.8696 113.303C33.5188 114.306 34.4629 114.955 35.6432 115.368C37.0005 115.781 38.2397 115.722 39.4199 115.132C40.6002 114.542 41.3083 113.48 41.7214 111.828L42.5476 108.228C42.8426 106.871 42.6656 105.631 42.0165 104.51C41.3673 103.33 40.3641 102.563 38.9478 102.15C37.5906 101.737 36.3513 101.914 35.1711 102.622C33.9908 103.33 33.1647 104.392 32.8106 105.749L32.0435 109.172C31.9254 109.408 31.9254 109.762 31.9254 110.293ZM36.4103 93.1798C36.4103 94.419 36.8824 95.5403 37.8856 96.5435C38.8298 97.5467 39.892 98.0188 41.1903 98.0188C42.6066 98.0188 43.7868 97.5466 44.731 96.6025C45.6752 95.6583 46.1473 94.537 46.1473 93.1208C46.1473 91.7635 45.6752 90.5832 44.731 89.6391C43.7868 88.6949 42.6066 88.2228 41.1903 88.2228C39.833 88.2228 38.6528 88.6949 37.7676 89.58C36.8824 90.4652 36.4103 91.8225 36.4103 93.1798ZM40.0101 79.7841C39.9511 80.7283 40.1871 81.6134 40.8362 82.4396C41.4263 83.3248 42.3705 83.9149 43.6688 84.328C44.9081 84.6821 46.0883 84.564 47.3275 83.9149C48.5668 83.2658 49.3339 82.2626 49.747 80.9053L51.3994 75.5942C51.8124 74.1779 51.6944 72.8797 50.9863 71.7585C50.2781 70.6372 49.2159 69.8701 47.7996 69.457C46.5014 69.0439 45.2621 69.1619 44.0819 69.8701C42.9016 70.5192 42.0755 71.5224 41.6624 72.8207L40.2461 78.2498C40.2461 78.3678 40.1871 78.6038 40.1281 78.9579C40.0101 79.253 40.0101 79.548 40.0101 79.7841ZM46.8554 128.705C46.8554 129.767 47.1505 130.711 47.7406 131.656C48.3307 132.6 49.2749 133.249 50.5732 133.603C51.0453 133.721 51.5764 133.78 52.0485 133.78C54.586 133.78 56.1203 132.6 56.7104 130.18L57.5366 126.699C57.8907 125.164 57.7136 123.866 57.0645 122.686C56.4154 121.505 55.3532 120.797 53.9959 120.502C52.7566 120.089 51.5174 120.207 50.2781 120.915C49.0389 121.624 48.2717 122.627 47.8586 123.925L47.0325 127.407C46.9145 127.938 46.8554 128.351 46.8554 128.705ZM51.4584 111.591C51.4584 112.89 51.9305 114.011 52.9337 115.014C53.8779 115.958 54.9991 116.43 56.2973 116.43C57.7136 116.43 58.8349 115.958 59.779 115.073C60.7232 114.129 61.1363 113.008 61.1363 111.591C61.1363 110.234 60.6642 109.113 59.779 108.169C58.8939 107.225 57.7136 106.812 56.2973 106.812C54.8811 106.812 53.7598 107.284 52.8156 108.169C51.9305 109.054 51.4584 110.234 51.4584 111.591ZM55.1761 98.1958C55.1171 99.081 55.3532 100.025 55.9433 100.969C56.5334 101.914 57.4186 102.504 58.5988 102.74C59.9561 103.094 61.1953 102.976 62.3756 102.386C63.4968 101.795 64.323 100.674 64.7951 99.081L66.3884 93.7699C66.8015 92.4716 66.6834 91.2324 65.9753 90.0521C65.2672 88.8719 64.2639 88.1047 62.8477 87.6917C61.5494 87.2786 60.3102 87.4556 59.0709 88.1638C57.8317 88.8719 57.0645 89.9341 56.6514 91.2914L55.3532 96.6025C55.2351 97.0746 55.1761 97.6057 55.1761 98.1958ZM71.4044 110.883C71.4044 111.828 71.6995 112.772 72.2896 113.716C72.8797 114.66 73.8239 115.309 75.0041 115.663C75.1812 115.663 75.4762 115.722 75.8303 115.781C76.1844 115.84 76.4204 115.899 76.6564 115.899C79.0759 115.899 80.5512 114.601 81.1414 112.005L81.9675 108.464C82.3806 107.225 82.2626 105.985 81.5544 104.746C80.9053 103.507 79.9021 102.74 78.5448 102.327C77.0695 101.973 75.7123 102.091 74.532 102.799C73.3518 103.507 72.5256 104.51 72.1125 105.926L71.5814 109.408C71.5814 109.526 71.5224 109.821 71.4634 110.116C71.4634 110.411 71.4044 110.647 71.4044 110.883ZM75.7713 93.4158C75.7713 94.7141 76.2434 95.8943 77.2466 96.7795C78.1317 97.7237 79.253 98.1958 80.6102 98.1958C82.0265 98.1958 83.1478 97.7237 84.0919 96.8385C85.0361 95.9533 85.4492 94.7731 85.4492 93.4158C85.4492 91.9995 84.9771 90.8783 84.0919 89.9341C83.2068 88.9899 82.0265 88.5768 80.6102 88.5768C79.194 88.5768 78.0727 89.0489 77.1285 89.9341C76.1844 90.8193 75.7713 91.9995 75.7713 93.4158ZM79.371 79.7841C79.371 80.7873 79.6661 81.7315 80.3152 82.6166C80.9643 83.5018 81.9085 84.151 83.2068 84.505C83.3248 84.505 83.5608 84.564 83.9149 84.623C84.269 84.6821 84.564 84.7411 84.7411 84.7411C85.3312 84.7411 86.0393 84.564 86.8655 84.21C88.1048 83.5608 88.9309 82.4986 89.285 81.1414L90.7013 75.8303C91.0554 74.473 90.9373 73.2338 90.2292 72.1125C89.5801 70.9323 88.5769 70.1651 87.2196 69.7521C85.8623 69.339 84.6231 69.457 83.4428 70.1061C82.2626 70.7553 81.5544 71.6994 81.1414 73.1157L79.489 78.4858C79.489 78.6038 79.43 78.8399 79.371 79.1939C79.43 79.371 79.371 79.607 79.371 79.7841ZM79.7841 20.4771C81.6725 17.0544 84.269 14.4579 87.5146 12.5695C90.8193 10.6812 94.183 9.79597 97.7237 9.85499C98.2548 9.85499 98.8449 9.914 99.4941 10.032V11.8614C99.435 17.6446 100.969 23.0737 104.038 28.1487C107.166 33.2237 111.532 37.0005 117.139 39.597C116.017 42.0165 114.424 44.1999 112.418 46.1473C106.989 41.6624 100.615 39.4199 93.3568 39.4199H91.5274C89.6981 31.6894 85.8033 25.3751 79.7841 20.4771Z" fill="white"/>
</svg>
