<svg width="129" height="126" viewBox="0 0 129 126" fill="none" xmlns="http://www.w3.org/2000/svg">
<path d="M0 58.3075C0 65.1203 2.05058 71.1965 6.15173 76.5362C10.2529 81.876 15.5968 85.5586 22.1835 87.5226L18.0824 97.8338C17.896 98.6931 18.2066 99.1841 18.9523 99.1841H32.1879L26.0983 125.576H27.8381L52.1965 90.2845C52.4451 90.039 52.4451 89.7321 52.2587 89.4253C52.0723 89.1184 51.7616 88.9956 51.3266 88.9956H37.7803L53.1908 60.517C53.6257 59.6578 53.315 59.1667 52.3208 59.1667H34.052C33.4928 59.1667 32.9957 59.4736 32.6228 60.0874L25.974 77.7024C21.5621 76.5976 17.896 74.2039 14.9754 70.5827C12.0549 66.9615 10.6257 62.8493 10.6257 58.2461C10.6257 53.1519 12.3656 48.7328 15.9075 44.9274C19.4494 41.1835 23.7991 38.974 28.9566 38.3602L32.25 37.9306C33.0578 37.9306 33.4928 37.5623 33.4928 36.8258L33.9277 33.6956C34.6113 27.0669 37.4075 21.4817 42.4408 17.0012C47.474 12.5208 53.3772 10.2498 60.1503 10.2498C66.9234 10.2498 72.8266 12.5208 77.8598 17.0012C82.9552 21.4817 85.8136 27.0669 86.5593 33.6956L86.9942 37.2554C86.9942 37.9306 87.3671 38.2988 88.1127 38.2988H98.0549C103.71 38.2988 108.494 40.2629 112.471 44.1296C116.448 47.9963 118.499 52.7222 118.499 58.1234C118.499 63.3403 116.634 67.8822 112.968 71.6875C109.302 75.4929 104.704 77.641 99.2977 78.0706C98.4899 78.0706 98.0549 78.4389 98.0549 79.1754V87.584C98.0549 88.2591 98.4899 88.6274 99.2977 88.6274C107.562 88.3819 114.584 85.2517 120.363 79.3596C126.142 73.4674 129 66.4092 129 58.1847C129 52.6609 127.633 47.5666 124.837 42.902C122.103 38.2374 118.312 34.5549 113.59 31.8543C108.805 29.1537 103.647 27.8035 98.0549 27.8035H96.1286C94.078 19.6404 89.6662 12.9504 83.0173 7.79479C76.3685 2.63918 68.7254 0 60.1503 0C51.3887 0 43.5593 2.70056 36.7861 8.0403C30.013 13.38 25.6633 20.2542 23.737 28.6627C16.8396 30.2585 11.185 33.757 6.71098 39.2808C2.23699 44.8047 0 51.2492 0 58.3075ZM50.5809 117.904C50.5809 120.298 51.7616 121.893 54.185 122.63C54.2471 122.63 54.4957 122.63 54.8685 122.691C55.2413 122.753 55.552 122.753 55.7384 122.753C56.7948 122.753 57.789 122.446 58.7832 121.832C59.7775 121.218 60.461 120.236 60.7717 118.886L74.7529 65.5499C75.1257 64.0769 75.0015 62.788 74.3179 61.5604C73.6344 60.3943 72.6402 59.5964 71.211 59.1667C70.1546 59.044 69.5954 58.9826 69.5954 58.9826C68.6012 58.9826 67.6069 59.2895 66.6749 59.9033C65.7428 60.517 65.0593 61.4377 64.7486 62.6652L50.7052 116.185C50.6431 116.799 50.5809 117.351 50.5809 117.904ZM76.4306 99.1227C76.4306 99.9206 76.6171 100.719 77.052 101.455C77.922 102.805 78.9783 103.726 80.2211 104.156C80.9046 104.34 81.526 104.462 82.0853 104.462C82.6445 104.462 83.328 104.34 84.0737 103.971C85.3786 103.419 86.2486 102.253 86.6835 100.473L95.6315 65.6726C95.8179 64.8134 95.9422 64.261 95.9422 64.0155C95.9422 63.0948 95.6315 62.1742 94.948 61.2535C94.2645 60.3329 93.3324 59.6578 92.0896 59.2895C91.0332 59.1668 90.474 59.1054 90.474 59.1054C89.4176 59.1054 88.4234 59.4123 87.5535 60.026C86.6835 60.6398 86.0621 61.5604 85.6893 62.788L76.6171 97.7724C76.6171 97.8952 76.6171 98.0793 76.5549 98.4476C76.4306 98.7545 76.4306 98.9386 76.4306 99.1227Z" fill="white"/>
</svg>
