<svg width="129" height="131" viewBox="0 0 129 131" fill="none" xmlns="http://www.w3.org/2000/svg">
<path d="M0 77.6268C0 83.0404 1.5755 87.8739 4.77424 92.1274C7.97298 96.3809 12.0788 99.2327 17.0918 100.634L13.9408 108.852C13.7021 109.528 13.9408 109.915 14.6092 109.915H24.7783L17.9511 130.264H19.3357L40.1514 102.906C40.3423 102.713 40.3423 102.471 40.2469 102.23C40.1514 101.988 39.9127 101.891 39.5785 101.891H29.1229L41.0107 79.4152C41.3449 78.7385 41.154 78.3518 40.3423 78.3518H26.2106C25.7809 78.3518 25.399 78.5935 25.1125 79.0768L20.0041 92.9975C16.5666 92.1274 13.7021 90.2907 11.5059 87.3905C9.26203 84.5388 8.16395 81.3003 8.16395 77.6268C8.16395 73.5666 9.50074 70.0381 12.1743 67.0896C14.8479 64.1412 18.2376 62.4011 22.248 61.9178L24.6828 61.7727C25.2557 61.7727 25.5899 61.5311 25.7332 61.096L26.0674 58.2443C26.5925 53.024 28.7409 48.6255 32.6081 45.097C36.4752 41.5685 41.0107 39.7801 46.2624 39.7801C51.4663 39.7801 56.0019 41.5685 59.9167 45.097C63.8316 48.6255 66.0755 53.024 66.6007 58.2443L66.9826 61.096C66.9826 61.6277 67.2691 61.9178 67.842 61.9178H75.5285C79.7776 61.9178 83.4537 63.4645 86.557 66.558C89.6603 69.6514 91.188 73.3249 91.188 77.6268C91.188 81.832 89.7557 85.4571 86.8912 88.5506C84.0267 91.6441 80.5892 93.2875 76.4834 93.5292C75.8627 93.5292 75.5285 93.8192 75.5285 94.3992V100.876C75.5285 101.408 75.8627 101.698 76.4834 101.698C80.6847 101.601 84.5518 100.441 88.037 98.2177C91.5222 96.0426 94.2913 93.0941 96.3442 89.469C98.3971 85.8438 99.3997 81.8803 99.3997 77.6268C99.3997 74.0983 98.7313 70.8598 97.3468 67.863C100.975 63.2228 102.789 57.9059 102.789 51.9606C102.789 47.3688 101.644 43.1153 99.3997 39.2001C97.1558 35.2849 94.1003 32.1914 90.2332 29.9197C86.366 27.6479 82.1647 26.4878 77.6292 26.4878C74.1917 26.4878 70.8497 27.2129 67.6033 28.6629C64.3568 30.113 61.5877 32.1431 59.2006 34.7049C55.3335 32.6264 51.0366 31.5631 46.2147 31.5631C39.4352 31.5631 33.4197 33.6898 28.2158 37.9434C23.0118 42.1969 19.6221 47.6104 18.1899 54.2324C12.8905 55.4891 8.54589 58.2926 5.10844 62.6428C1.71873 67.0896 0 72.0682 0 77.6268ZM39.0533 125.576C39.0533 126.301 39.292 127.074 39.8172 127.847C40.3423 128.621 41.0585 129.152 42.0133 129.491C42.5385 129.636 42.9682 129.684 43.2069 129.684C43.923 129.684 44.5437 129.539 45.0211 129.297C46.0237 128.911 46.7398 127.992 47.074 126.542L48.3631 121.564C48.6495 120.355 48.5063 119.292 47.9811 118.325C47.456 117.359 46.5489 116.779 45.4508 116.537C44.4482 116.198 43.4933 116.344 42.4908 116.875C41.4882 117.455 40.8198 118.277 40.4856 119.389L39.292 124.416C39.1488 125.092 39.0533 125.479 39.0533 125.576ZM40.1514 18.2225C40.1514 19.3342 40.5333 20.3009 41.3449 21.1226L44.4482 24.3127C45.2121 25.0861 46.0714 25.4728 47.074 25.5695C48.0766 25.7145 49.0315 25.3761 49.9863 24.4578C50.9412 23.5877 51.4186 22.5727 51.4186 21.3643C51.4186 20.2526 51.0366 19.2859 50.225 18.4642L47.2172 15.274C46.4534 14.5006 45.4985 14.114 44.3527 14.114C43.1591 14.114 42.1566 14.5006 41.3449 15.274C40.5811 16.1441 40.1514 17.1108 40.1514 18.2225ZM45.4508 102.375C45.403 103.148 45.6417 103.921 46.1192 104.646C46.5966 105.371 47.3605 105.903 48.4108 106.193C49.4134 106.531 50.416 106.435 51.3708 105.903C52.3257 105.371 52.9941 104.453 53.376 103.196L54.8083 98.2177C55.1425 97.1543 54.9993 96.1393 54.4264 95.1726C53.8534 94.2059 52.9941 93.5292 51.8483 93.1908C50.7502 92.8525 49.7476 92.9491 48.7927 93.5292C47.8379 94.1092 47.1695 94.9309 46.8353 96.0909L45.6895 101.166C45.5463 101.891 45.4508 102.278 45.4508 102.375ZM58.9619 110.495C58.9619 111.172 59.1051 111.848 59.4393 112.38C60.06 113.395 60.9193 114.12 62.0174 114.458C62.5426 114.652 63.02 114.748 63.3542 114.748C63.9748 114.748 64.4523 114.652 64.8342 114.362C65.789 114.023 66.5052 113.057 66.9826 111.462L68.1762 106.58C68.5104 105.42 68.4149 104.405 67.842 103.438C67.3168 102.471 66.5052 101.843 65.4071 101.553C64.309 101.214 63.2587 101.311 62.3039 101.891C61.349 102.423 60.6806 103.245 60.3464 104.356L59.0096 109.383C59.0096 109.77 58.9619 110.157 58.9619 110.495ZM65.5026 87.1972C65.5026 88.0673 65.7413 88.8406 66.2665 89.614C66.7916 90.3874 67.5555 90.919 68.6058 91.2091C69.4175 91.4991 70.3723 91.4024 71.5181 90.9674C72.473 90.5324 73.1414 89.614 73.5711 88.2123L74.8601 83.3787C75.1466 82.1703 75.0511 81.1069 74.4782 80.1402C73.9053 79.1735 73.0936 78.5935 71.9478 78.3518C70.8497 78.0135 69.8472 78.1101 68.8923 78.6418C67.9375 79.1735 67.3168 79.9952 66.9826 81.0586L65.5981 86.1822C65.5503 86.8589 65.5026 87.1972 65.5026 87.1972ZM65.98 39.6351C69.1788 36.5416 73.0459 34.9466 77.6769 34.9466C82.3557 34.9466 86.366 36.59 89.6603 39.9251C92.9545 43.2119 94.6255 47.2721 94.6255 52.009C94.6255 55.1991 93.8616 58.0993 92.3816 60.7577C87.7983 56.1175 82.2124 53.7974 75.5762 53.7974H74.0962C72.7117 48.0455 69.9904 43.3086 65.98 39.6351ZM73.6188 14.1623C73.6188 15.3223 74.0007 16.2891 74.8124 17.1108C75.624 17.9325 76.5788 18.3191 77.6769 18.3191C78.8227 18.3191 79.7776 17.9325 80.5415 17.1108C81.3053 16.2891 81.6873 15.3223 81.6873 14.1623V4.20519C81.6873 3.04514 81.3053 2.03009 80.5415 1.25672C79.7776 0.43502 78.8227 0 77.6769 0C76.5311 0 75.5762 0.386684 74.8124 1.20839C74.0485 2.03009 73.6188 2.9968 73.6188 4.15685V14.1623ZM100.259 25.2311C100.259 26.3912 100.641 27.3579 101.357 28.1312C102.026 28.9046 102.885 29.2913 103.983 29.388C105.081 29.4846 106.084 29.0496 106.991 28.1312L113.866 21.1709C114.725 20.3976 115.107 19.4309 115.107 18.2708C115.107 17.1108 114.677 16.1441 113.866 15.3707C113.102 14.5006 112.147 14.114 111.001 14.114C109.903 14.114 108.996 14.549 108.232 15.3707L101.357 22.331C100.593 23.056 100.259 24.0227 100.259 25.2311ZM103.935 82.7987C103.935 83.9104 104.317 84.8771 105.129 85.6988L108.232 88.7439C109.091 89.5656 110.094 89.9523 111.192 89.9523L111.288 90.049C112.338 90.049 113.197 89.614 113.866 88.7439C114.725 87.9706 115.107 87.0039 115.107 85.8438C115.107 84.7321 114.677 83.7654 113.866 82.8953L110.906 79.8986C110.046 79.0285 109.091 78.5935 107.993 78.5935C106.848 78.5935 105.893 79.0285 105.129 79.8502C104.365 80.6719 103.935 81.687 103.935 82.7987ZM110.953 52.009C110.953 53.169 111.383 54.1357 112.195 54.8608C112.959 55.7308 113.913 56.1175 115.059 56.1175H124.894C126.04 56.1175 126.995 55.7308 127.806 54.9091C128.618 54.0874 129 53.1207 129 52.009C129 50.8973 128.618 49.8822 127.806 49.1088C126.995 48.3355 126.04 47.9488 124.894 47.9488H115.059C113.913 47.9488 112.911 48.3355 112.147 49.1088C111.335 49.8822 110.953 50.8489 110.953 52.009Z" fill="white"/>
</svg>
