<svg width="129" height="133" viewBox="0 0 129 133" fill="none" xmlns="http://www.w3.org/2000/svg">
<path d="M0 68.2334C0 74.7957 1.95096 80.6486 5.85289 85.7921C9.75481 90.9355 14.8391 94.4827 21.1059 96.3746L17.2631 106.425C17.0266 107.253 17.2631 107.667 18.0907 107.667H30.6242L22.9977 132.379H24.6531L49.6609 99.1532C49.8973 98.9168 49.8973 98.6211 49.7791 98.3255C49.6017 98.0299 49.3653 97.9117 48.9514 97.9117H36.0632L50.6659 70.48C51.0797 69.6523 50.8433 69.1793 49.8973 69.1793H32.3978C31.8657 69.1793 31.4519 69.475 31.0972 70.0662L24.7713 87.0927C20.5738 86.0286 17.0857 83.7229 14.2479 80.1757C11.4102 76.6285 10.0504 72.6674 10.0504 68.2925C10.0504 63.3856 11.7058 59.1289 15.0756 55.4635C18.4455 51.8572 22.5839 49.7288 27.4908 49.1376L30.6242 48.7238C31.3928 48.7238 31.8066 48.3691 31.8066 47.6596L32.2204 44.6445C32.8708 38.2596 35.5312 32.8796 40.3199 28.5639C45.1086 24.2481 50.725 22.0607 57.1691 22.0607C63.6132 22.0607 69.2296 24.2481 74.0775 28.5639C78.9253 32.8796 81.6448 38.2596 82.3543 44.5854L82.7681 47.9552C82.7681 48.6647 83.1228 49.0785 83.7731 49.0785H93.3506C98.7305 49.0785 103.283 50.9704 107.126 54.6949C110.968 58.4195 112.86 62.9717 112.86 68.1743C112.86 73.1995 111.087 77.5744 107.539 81.2398C103.992 84.9053 99.6764 86.9745 94.533 87.3292C93.8236 87.3292 93.4097 87.6839 93.4097 88.4525V96.4928C93.4097 97.2023 93.7644 97.557 94.533 97.557C102.396 97.3205 109.077 94.3054 114.575 88.6299C120.073 82.8952 122.792 76.0964 122.792 68.2334C122.792 63.09 121.492 58.3013 118.89 53.749C123.384 49.3741 126.399 44.2307 127.818 38.2596L128.941 34.2394C129 34.1803 129 34.062 129 33.8255C129 33.3526 128.704 33.057 128.113 32.8796L124.448 31.8746C121.078 30.8695 118.181 29.2142 115.816 26.9085C113.451 24.6028 111.796 22.1789 110.791 19.6959C109.786 17.2128 109.313 14.7298 109.372 12.2467C109.372 10.5914 109.549 8.936 109.963 7.22152L110.614 3.61519C110.732 3.02399 110.495 2.55103 109.786 2.25543L105.056 0.836548C102.278 0.304468 99.8538 0.00886803 97.7255 0.00886803C95.538 -0.050252 93.2915 0.186228 91.0449 0.718308C88.7983 1.19127 86.4335 2.01895 84.0096 3.08311C81.5857 4.14727 79.28 5.74351 77.0335 7.7536C74.7869 9.76368 72.8359 12.1285 71.1806 14.848C66.2736 13.0153 61.6031 12.1285 57.2282 12.1285C48.8923 12.1285 41.4432 14.7298 34.9991 19.9323C28.555 25.1349 24.3575 31.7563 22.5247 39.7967C15.9624 41.3338 10.5825 44.7628 6.32585 50.0836C2.12832 55.3452 0 61.4346 0 68.2334ZM56.6962 104.119C56.6962 105.538 57.1691 106.721 58.115 107.607C59.061 108.553 60.2434 109.026 61.544 109.026C62.9629 109.026 64.1453 108.553 65.1503 107.607C66.1554 106.661 66.6283 105.479 66.6283 104.119C66.6283 102.7 66.1554 101.518 65.1503 100.513C64.1453 99.5079 62.9629 98.9759 61.544 98.9759C60.2434 98.9759 59.1201 99.5079 58.115 100.513C57.11 101.518 56.6962 102.7 56.6962 104.119ZM56.6962 82.5996C56.6962 84.0185 57.1691 85.1418 58.115 86.0286C59.061 86.9745 60.2434 87.4474 61.544 87.4474C62.9629 87.4474 64.2044 86.9745 65.1503 86.0877C66.0962 85.2009 66.6283 84.0185 66.6283 82.5996C66.6283 81.2398 66.1554 80.0574 65.1503 79.0524C64.1453 78.0474 62.9629 77.5744 61.544 77.5744C60.1842 77.5744 59.061 78.0474 58.115 79.0524C57.1691 80.0574 56.6962 81.2398 56.6962 82.5996ZM56.6962 125.816C56.6962 127.117 57.1691 128.24 58.115 129.186C59.1201 130.191 60.2434 130.664 61.544 130.664C62.9629 130.664 64.1453 130.191 65.1503 129.245C66.1554 128.299 66.6283 127.176 66.6283 125.757C66.6283 124.338 66.1554 123.156 65.1503 122.151C64.1453 121.146 62.9629 120.614 61.544 120.614C60.2434 120.614 59.1201 121.146 58.115 122.151C57.1691 123.215 56.6962 124.457 56.6962 125.816ZM75.7919 92.65C75.7919 94.0689 76.2649 95.2513 77.2699 96.1972C78.275 97.1431 79.3983 97.6752 80.8171 97.6752C82.1769 97.6752 83.3593 97.2023 84.3052 96.1972C85.2511 95.1922 85.7241 94.0098 85.7241 92.65C85.7241 91.3494 85.2511 90.167 84.3052 89.2211C83.3593 88.2751 82.236 87.8022 80.8171 87.8022C79.4574 87.8022 78.275 88.2751 77.2699 89.2211C76.2649 90.167 75.7919 91.2903 75.7919 92.65ZM75.7919 114.17C75.7919 115.529 76.2649 116.653 77.2108 117.599C78.1567 118.545 79.3391 119.018 80.758 119.018C82.1769 119.018 83.3002 118.545 84.2461 117.599C85.192 116.653 85.6059 115.529 85.6059 114.111C85.6059 112.692 85.1329 111.568 84.2461 110.623C83.3002 109.677 82.1769 109.263 80.758 109.263C79.3391 109.263 78.1567 109.736 77.2108 110.623C76.2649 111.568 75.7919 112.751 75.7919 114.17ZM79.8121 20.2279C81.7631 16.9172 84.4235 14.375 87.7342 12.6014C91.0449 10.8278 94.533 9.94104 98.1393 9.94104H99.44V11.8329C99.44 15.6166 100.09 19.282 101.45 22.8292C102.81 26.3764 104.761 29.628 107.48 32.6431C110.141 35.6583 113.333 38.0231 116.999 39.7967C115.994 42.0432 114.516 44.0533 112.506 45.886C107.126 41.2747 100.8 38.969 93.4688 38.969H91.5179C89.8034 31.5199 85.9015 25.2531 79.8121 20.2279Z" fill="white"/>
</svg>
