<svg width="343" height="300" viewBox="0 0 343 300" fill="none" xmlns="http://www.w3.org/2000/svg">
<path d="M280.03 97.2186C276.414 96.0133 272.798 94.875 269.182 93.8036C269.785 91.326 270.32 88.8485 270.856 86.3709C279.092 46.4624 273.668 14.3882 255.388 3.80839C237.777 -6.30268 209.051 4.21015 179.99 29.5213C177.111 31.9988 174.299 34.6103 171.62 37.2218C169.812 35.4808 167.937 33.7398 166.063 32.0658C135.595 5.01368 105.061 -6.36964 86.7811 4.27711C69.2374 14.4551 64.0144 44.6544 71.3801 82.4203C72.1167 86.1701 72.9202 89.8529 73.8577 93.6027C69.5722 94.808 65.3537 96.1472 61.403 97.5534C25.6459 109.941 0 129.494 0 149.716C0 170.608 27.32 191.566 64.4832 204.289C67.4964 205.293 70.5096 206.298 73.5898 207.168C72.5854 211.186 71.7149 215.136 70.9114 219.221C63.8805 256.384 69.3713 285.847 86.915 295.958C104.994 306.404 135.395 295.69 164.991 269.776C167.335 267.701 169.678 265.558 172.022 263.281C174.968 266.16 178.049 268.906 181.129 271.584C209.788 296.226 238.112 306.203 255.589 296.092C273.668 285.646 279.561 253.974 271.927 215.404C271.325 212.458 270.655 209.445 269.919 206.365C272.061 205.762 274.137 205.092 276.213 204.423C314.849 191.633 342.839 170.942 342.839 149.716C342.839 129.427 316.456 109.74 280.03 97.2186ZM189.432 40.3689C214.341 18.6737 237.577 10.1697 248.156 16.2631C259.473 22.7583 263.825 49.0069 256.727 83.4916C256.259 85.7683 255.79 87.978 255.187 90.1877C240.322 86.8397 225.256 84.4291 210.123 83.0899C201.418 70.6352 191.909 58.7162 181.597 47.5337C184.209 45.0562 186.753 42.7126 189.432 40.3689ZM111.958 184.468C115.373 190.294 118.855 196.12 122.538 201.811C112.092 200.673 101.713 198.999 91.4683 196.789C94.4146 187.147 98.0974 177.17 102.383 166.992C105.463 172.884 108.61 178.71 111.958 184.468ZM91.6692 103.915C101.312 101.772 111.557 100.031 122.203 98.6917C118.654 104.249 115.172 109.941 111.891 115.7C108.61 121.391 105.396 127.217 102.383 133.11C98.1644 123.132 94.6155 113.356 91.6692 103.915ZM110.016 150.051C114.436 140.81 119.257 131.77 124.346 122.865C129.435 113.959 134.926 105.321 140.684 96.8168C150.729 96.0802 160.974 95.6785 171.419 95.6785C181.865 95.6785 192.177 96.0802 202.154 96.8168C207.846 105.254 213.27 113.892 218.426 122.731C223.582 131.569 228.403 140.609 232.956 149.783C228.47 159.023 223.649 168.13 218.493 177.103C213.404 186.008 207.98 194.646 202.288 203.217C192.311 203.954 181.932 204.289 171.419 204.289C160.907 204.289 150.729 203.954 140.885 203.351C135.06 194.847 129.569 186.142 124.413 177.237C119.257 168.331 114.503 159.291 110.016 150.051ZM230.947 184.334C234.362 178.442 237.577 172.482 240.724 166.456C245.009 176.165 248.759 186.008 252.04 196.12C241.661 198.463 231.148 200.271 220.569 201.476C224.184 195.852 227.599 190.093 230.947 184.334ZM240.59 133.11C237.443 127.217 234.229 121.324 230.881 115.566C227.599 109.874 224.184 104.249 220.636 98.6917C231.416 100.031 241.728 101.839 251.371 104.049C248.29 113.959 244.674 123.601 240.59 133.11ZM171.553 57.7787C178.584 65.4122 185.213 73.4475 191.374 81.7507C178.115 81.148 164.79 81.148 151.532 81.7507C158.094 73.1127 164.857 65.0774 171.553 57.7787ZM93.8789 16.7318C105.128 10.1697 130.105 19.5442 156.42 42.8465C158.094 44.3196 159.768 45.9267 161.509 47.5337C151.13 58.7162 141.555 70.6352 132.783 83.0899C117.65 84.4291 102.651 86.7727 87.7855 90.0538C86.915 86.6388 86.1784 83.1568 85.4419 79.6749C79.1476 47.2659 83.2991 22.8252 93.8789 16.7318ZM77.4735 193.24C74.6612 192.437 71.9158 191.566 69.1704 190.629C54.9078 186.142 38.7033 179.045 26.9852 169.737C20.2221 165.05 15.6688 157.818 14.3966 149.716C14.3966 137.462 35.5561 121.793 66.0902 111.146C69.907 109.807 73.7907 108.602 77.6744 107.464C82.2278 121.994 87.7185 136.257 94.0798 150.051C87.6516 164.045 82.0938 178.509 77.4735 193.24ZM155.55 258.862C144.501 268.973 131.712 277.008 117.784 282.499C110.351 286.048 101.78 286.383 94.1468 283.369C83.5 277.209 79.0806 253.572 85.1071 221.766C85.8436 218.016 86.6472 214.266 87.5846 210.583C102.584 213.797 117.717 216.007 133.051 217.145C141.89 229.667 151.599 241.653 161.978 252.902C159.835 254.978 157.692 256.987 155.55 258.862ZM171.955 242.59C165.125 235.225 158.295 227.055 151.666 218.284C158.094 218.551 164.723 218.685 171.419 218.685C178.316 218.685 185.079 218.551 191.775 218.217C185.615 226.721 178.986 234.823 171.955 242.59ZM259.473 262.678C258.87 270.848 254.852 278.481 248.424 283.637C237.777 289.798 215.078 281.762 190.57 260.737C187.758 258.326 184.945 255.715 182.066 253.036C192.311 241.72 201.753 229.734 210.324 217.145C225.658 215.873 240.925 213.529 255.991 210.114C256.66 212.86 257.263 215.605 257.799 218.284C261.08 232.747 261.615 247.813 259.473 262.678ZM271.66 190.696C269.785 191.298 267.91 191.901 265.968 192.437C261.281 177.839 255.522 163.577 248.893 149.716C255.321 136.056 260.745 121.994 265.298 107.597C268.78 108.602 272.128 109.673 275.342 110.745C306.546 121.458 328.442 137.395 328.442 149.582C328.442 162.706 305.073 179.647 271.66 190.696ZM171.419 180.652C188.36 180.652 202.087 166.925 202.087 149.984C202.087 133.043 188.36 119.316 171.419 119.316C154.478 119.316 140.751 133.043 140.751 149.984C140.751 166.925 154.478 180.652 171.419 180.652Z" fill="#149ECA"/>
</svg>
