<svg width="129" height="99" viewBox="0 0 129 99" fill="none" xmlns="http://www.w3.org/2000/svg">
<path d="M0 64.5C0 63.1837 0.52653 61.9727 1.57959 60.8669C2.73796 59.8665 4.00163 59.34 5.26531 59.34H17.5335C18.9551 59.34 20.1135 59.8665 21.0612 60.8669C22.009 61.8673 22.4829 63.131 22.4829 64.5C22.4829 66.0269 22.009 67.2906 21.0612 68.291C20.1135 69.2914 18.9024 69.818 17.5335 69.818H5.26531C3.84367 69.818 2.63265 69.2914 1.57959 68.2384C0.52653 67.1327 0 65.869 0 64.5ZM17.5335 22.4829C17.5335 21.0612 18.0073 19.8502 18.9024 18.9024C20.1135 17.8494 21.3245 17.3229 22.6408 17.3229C24.0098 17.3229 25.2208 17.8494 26.2212 18.8498L34.8563 27.5376C35.8567 28.6959 36.3306 29.9069 36.3306 31.1706C36.3306 32.6449 35.8567 33.9086 34.909 34.8563C33.9612 35.8041 32.8029 36.3306 31.4339 36.3306C30.1702 36.3306 28.9065 35.8041 27.7482 34.8037L18.9024 26.3265C18.0073 25.2208 17.5335 23.9045 17.5335 22.4829ZM28.0641 93.5645C28.0641 92.0902 28.5906 90.8792 29.591 89.9841C30.5388 89.089 31.6971 88.6151 33.1714 88.6151H47.0192L63.3943 73.2404C63.9208 72.8192 64.5 72.8192 65.1845 73.2404L81.8229 88.6151H96.4077C97.8294 88.6151 99.0404 89.089 100.041 90.0894C101.041 91.0371 101.568 92.2482 101.568 93.6171C101.568 95.0388 101.041 96.2498 100.041 97.2502C99.0404 98.2506 97.8294 98.7771 96.4077 98.7771H78.611C78.0845 98.7771 77.558 98.6718 77.0841 98.4086L64.3947 86.4563L51.8106 98.4086C51.3894 98.6718 50.9155 98.7771 50.3363 98.7771H33.1714C31.7498 98.7771 30.5388 98.2506 29.5384 97.2502C28.538 96.1971 28.0641 94.9861 28.0641 93.5645ZM32.9082 64.5C32.9082 69.6073 34.0139 74.2408 36.1727 78.4004C36.278 79.0322 36.7518 79.3482 37.489 79.3482H47.3878C47.7563 79.3482 48.0196 79.1902 48.1775 78.9269C48.3355 78.611 48.2829 78.2951 48.0722 77.9265C44.7024 73.8722 43.0176 69.3967 43.0176 64.5C43.0176 58.6029 45.1237 53.5482 49.3359 49.3886C53.5482 45.229 58.6029 43.1755 64.5527 43.1755C70.4498 43.1755 75.4518 45.229 79.6114 49.3886C83.771 53.5482 85.8771 58.5502 85.8771 64.5C85.8771 69.4494 84.1922 73.9249 80.8751 77.9265C80.6645 78.2951 80.6118 78.611 80.7171 78.9269C80.8224 79.2429 81.0857 79.3482 81.5069 79.3482H91.511C92.1955 79.3482 92.6167 79.0322 92.722 78.4004C95.0388 74.3461 96.0918 69.7127 96.0918 64.5C96.0918 60.2351 95.2494 56.1282 93.5645 52.2845C91.8796 48.3882 89.6155 45.071 86.8249 42.2278C84.0343 39.4371 80.6645 37.1731 76.7682 35.4882C72.8718 33.8033 68.8176 33.0135 64.5527 33.0135C60.2878 33.0135 56.1808 33.8559 52.2845 35.4882C48.3882 37.1731 45.0184 39.3845 42.1751 42.2278C39.3318 45.0184 37.0678 48.3882 35.3829 52.2845C33.7506 56.1282 32.9082 60.1824 32.9082 64.5ZM59.3927 17.3229V5.21265C59.3927 3.68571 59.8665 2.47469 60.8669 1.47429C61.8673 0.473879 63.131 0 64.6053 0C66.0796 0 67.2906 0.473879 68.291 1.47429C69.2914 2.47469 69.7653 3.79102 69.7653 5.26531V17.3755C69.7653 18.9024 69.2914 20.1135 68.291 21.1139C67.3433 22.0616 66.0796 22.5882 64.6053 22.5882C63.0784 22.5882 61.8673 22.1143 60.8669 21.1139C59.8665 20.1135 59.3927 18.8498 59.3927 17.3229ZM92.8273 31.2233C92.8273 29.9069 93.3012 28.6959 94.249 27.5902L102.779 18.9024C103.779 17.902 105.043 17.3755 106.464 17.3755C107.886 17.3755 109.15 17.902 110.098 18.9024C111.098 19.9029 111.572 21.1139 111.572 22.5355C111.572 24.0624 111.098 25.3261 110.203 26.3792L101.357 34.8563C100.251 35.8567 98.9877 36.3833 97.6714 36.3833C96.2498 36.3833 95.0914 35.9094 94.1963 34.909C93.3012 33.9086 92.8273 32.6976 92.8273 31.2233ZM106.57 64.5C106.57 63.0784 107.044 61.8673 107.991 60.8669C108.939 59.8665 110.098 59.34 111.467 59.34H123.84C125.262 59.34 126.473 59.8665 127.473 60.8669C128.473 61.8673 129 63.131 129 64.5C129 65.9743 128.473 67.1853 127.473 68.2384C126.473 69.2914 125.262 69.818 123.84 69.818H111.467C110.045 69.818 108.887 69.2914 107.939 68.291C107.044 67.238 106.57 65.9743 106.57 64.5Z" fill="white"/>
</svg>
