<svg width="129" height="112" viewBox="0 0 129 112" fill="none" xmlns="http://www.w3.org/2000/svg">
<path d="M0 63.3221C0 61.8592 0.531959 60.7098 1.59588 59.7694C2.50021 58.8289 3.72371 58.411 5.21319 58.411H17.5014C18.9377 58.411 20.108 58.8812 21.0656 59.8216C21.9699 60.762 22.4487 61.9115 22.4487 63.3221C22.4487 64.785 21.9699 66.0389 21.0124 67.0315C20.0548 68.0242 18.8845 68.5467 17.5014 68.5467H5.26639C3.8301 68.5467 2.6066 68.0242 1.59588 66.9793C0.531959 65.9344 0 64.7327 0 63.3221ZM17.5014 22.2568C17.5014 20.7939 17.927 19.5922 18.8313 18.704C19.8953 17.6591 21.1188 17.1367 22.5551 17.1367C24.0977 17.1367 25.268 17.6591 26.1724 18.704L34.7901 27.2201C37.2371 29.519 37.2371 31.87 34.7901 34.2733C33.7794 35.266 32.6623 35.7362 31.3324 35.7362C30.1621 35.7362 28.9918 35.266 27.7151 34.2733L18.8845 25.8095C17.9802 24.8691 17.5014 23.6674 17.5014 22.2568ZM27.981 91.6394C27.981 90.281 28.513 89.0793 29.5769 88.0344C30.5344 87.094 31.7579 86.6238 33.1942 86.6238H50.3233C50.9085 86.6238 51.3872 86.7283 51.8128 87.0417L64.3138 98.6403L77.0276 86.9895C77.4 86.7283 77.932 86.5715 78.5703 86.5715H96.1249C97.5612 86.5715 98.7847 87.0417 99.7955 88.0344C100.806 89.0271 101.338 90.2287 101.338 91.5871C101.338 92.9978 100.806 94.1994 99.7955 95.1921C98.7847 96.1848 97.5612 96.7072 96.1249 96.7072H81.8685L65.1649 111.545C64.5266 112.015 63.9414 112.015 63.4095 111.545L47.0252 96.7072H33.1942C31.7579 96.7072 30.5344 96.1848 29.5237 95.1921C28.513 94.2517 27.981 93.05 27.981 91.6394ZM32.9814 63.3221C32.9814 68.4944 33.9922 73.0921 36.0668 77.0105C36.386 77.5852 36.8647 77.8465 37.5031 77.8465H47.4507C47.8763 77.8465 48.1423 77.742 48.2487 77.4807C48.3551 77.2195 48.1955 76.906 47.8763 76.5403C44.7377 72.6741 43.1419 68.2332 43.1419 63.3221C43.1419 57.575 45.2165 52.6639 49.419 48.641C53.6214 44.618 58.6751 42.5804 64.5798 42.5804C70.4313 42.5804 75.4318 44.618 79.6342 48.641C83.7835 52.7162 85.9113 57.575 85.9113 63.2698C85.9113 68.181 84.3155 72.6219 81.1769 76.4881C80.8045 76.8538 80.6981 77.1673 80.8045 77.4285C80.9109 77.6897 81.1769 77.7942 81.6025 77.7942H91.6033C92.2949 77.7942 92.7204 77.533 92.88 76.9583C95.061 72.8831 96.1781 68.2855 96.1781 63.2698C96.1781 59.1424 95.327 55.1195 93.6779 51.3055C92.0289 47.4916 89.7414 44.1478 86.9221 41.3788C84.1027 38.6098 80.7513 36.4154 76.868 34.7436C72.9847 33.0717 68.8887 32.288 64.633 32.288C60.3773 32.288 56.2812 33.1239 52.3979 34.7436C48.5146 36.4154 45.1633 38.6098 42.3439 41.3788C39.5245 44.1478 37.2903 47.4393 35.588 51.3055C33.8858 55.1717 32.9814 59.1947 32.9814 63.3221ZM59.3666 17.2934V5.1201C59.3666 3.70946 59.8986 2.50781 60.9093 1.51513C61.92 0.522461 63.1435 0 64.5798 0C66.0161 0 67.2396 0.522461 68.2503 1.51513C69.261 2.50781 69.793 3.70946 69.793 5.1201V17.2412C69.793 18.6518 69.261 19.8535 68.2503 20.8461C67.2396 21.8388 66.0161 22.3613 64.5798 22.3613C63.1435 22.3613 61.92 21.8388 60.9093 20.8461C59.8454 19.8535 59.3666 18.704 59.3666 17.2934ZM92.7204 30.7729C92.7204 29.31 93.1992 28.1083 94.1035 27.2724L102.774 18.7563C103.626 17.7114 104.849 17.1889 106.392 17.1889C107.828 17.1889 109.052 17.7114 110.009 18.704C110.967 19.6967 111.445 20.8984 111.445 22.309C111.445 23.7719 111.02 24.9736 110.115 25.8617L101.285 34.3778C100.061 35.3705 98.8379 35.8407 97.6144 35.8407C96.2313 35.8407 95.061 35.3705 94.1035 34.3778C93.1992 33.3852 92.7204 32.1835 92.7204 30.7729ZM106.498 63.3221C106.498 61.9115 106.977 60.762 107.881 59.8216C108.786 58.8812 110.009 58.411 111.445 58.411H123.787C125.223 58.411 126.447 58.8812 127.457 59.8216C128.468 60.762 129 61.9115 129 63.3221C129 64.7327 128.468 65.9344 127.457 66.9793C126.447 68.0242 125.223 68.5467 123.787 68.5467H111.445C110.062 68.5467 108.892 68.0242 107.934 67.0315C106.977 66.0389 106.498 64.785 106.498 63.3221Z" fill="white"/>
</svg>
