<svg width="129" height="102" viewBox="0 0 129 102" fill="none" xmlns="http://www.w3.org/2000/svg">
<path d="M0 77.2114C0 81.5573 1.0558 85.5651 3.16741 89.2349C5.27902 92.9048 8.15848 95.802 11.8058 97.9267C15.4531 100.051 19.3884 101.114 23.6596 101.114H75.6339C79.9051 101.114 83.8884 100.051 87.5357 97.9267C91.183 95.802 94.1105 92.9048 96.2221 89.2349C98.3337 85.5651 99.4375 81.5573 99.4375 77.2114C99.4375 74.0244 98.7656 70.7892 97.4219 67.5539C101.069 63.1115 102.893 57.7516 102.893 51.6191C102.893 48.1907 102.221 44.9072 100.925 41.7685C99.6295 38.6299 97.8058 35.974 95.5502 33.7045C93.2946 31.435 90.6551 29.6001 87.5357 28.2964C84.4163 26.9443 81.1529 26.3166 77.7455 26.3166C70.6429 26.3166 64.452 29.1173 59.125 34.7186C55.4297 32.5939 51.1105 31.5316 46.1674 31.5316C39.4007 31.5316 33.4498 33.6563 28.2667 37.8573C23.0837 42.0582 19.7243 47.4664 18.2846 54.0335C12.9096 55.289 8.54241 58.0413 5.13505 62.3872C1.72768 66.7331 0 71.6584 0 77.2114ZM8.20647 77.2114C8.20647 73.1553 9.55022 69.6786 12.2377 66.7331C14.9252 63.7875 18.2846 62.0975 22.3158 61.6146L24.7154 61.4697C25.2913 61.4697 25.6272 61.18 25.6272 60.6006L25.9632 57.9931C26.635 52.778 28.8906 48.3839 32.7299 44.9072C36.5692 41.3822 41.0804 39.6439 46.2154 39.6439C51.4944 39.6439 56.1016 41.4305 59.9888 44.9555C63.9241 48.4805 66.0837 52.8263 66.5636 58.0413L66.8996 60.842C66.9955 61.3732 67.3315 61.6629 67.9074 61.6629H75.6339C79.8571 61.6629 83.5045 63.2081 86.5759 66.2985C89.6473 69.3889 91.183 73.0104 91.183 77.2597C91.183 81.6538 89.6473 85.372 86.6239 88.4624C83.6005 91.5527 79.9051 93.0979 75.6819 93.0979H23.6596C19.4364 93.0979 15.8371 91.5527 12.7656 88.4141C9.74219 85.2754 8.20647 81.5573 8.20647 77.2114ZM40.3605 17.9629C40.3605 19.1218 40.7444 20.1358 41.5123 21.005L44.6797 24.0954C45.8795 25.0128 46.8873 25.3991 47.7511 25.3026C48.7589 25.3026 49.6228 24.868 50.3906 24.0471C51.1585 23.2262 51.5424 22.2122 51.5424 21.0533C51.5424 19.8944 51.1105 18.9286 50.2946 18.2043L47.4632 15.0174C46.5993 14.2448 45.6395 13.8585 44.5357 13.8585C43.3839 13.8585 42.3761 14.2448 41.5603 15.0656C40.7444 15.8382 40.3605 16.804 40.3605 17.9629ZM65.9877 39.3542C69.2991 36.1189 73.2344 34.5254 77.7455 34.5254C82.4967 34.5254 86.5279 36.1672 89.8393 39.499C93.1507 42.8308 94.8304 46.8387 94.8304 51.6191C94.8304 54.613 94.0145 57.6068 92.3828 60.504C87.7277 55.8684 82.1607 53.5506 75.6339 53.5506H74.0982C72.8984 48.2873 70.2109 43.5552 65.9877 39.3542ZM73.8103 13.8585C73.8103 15.1139 74.1942 16.0797 74.9141 16.8523C75.6339 17.6249 76.5938 17.9629 77.7455 17.9629C78.9933 17.9629 79.9531 17.5766 80.721 16.8523C81.4888 16.0797 81.8248 15.1139 81.8248 13.8585V3.95956C81.8248 2.80066 81.4409 1.8832 80.673 1.11061C79.9051 0.338011 78.9453 0 77.7455 0C76.5938 0 75.6819 0.386298 74.9141 1.11061C74.1462 1.83492 73.8103 2.80066 73.8103 3.95956V13.8585ZM100.301 24.9163C100.301 26.1717 100.637 27.1375 101.357 27.9101C102.365 28.6827 103.373 29.069 104.333 29.069C105.196 29.069 106.156 28.6827 107.164 27.9101L114.027 21.005C114.795 20.1358 115.179 19.1218 115.179 17.9146C115.179 16.7557 114.795 15.79 114.027 15.0174C113.259 14.2448 112.299 13.8585 111.195 13.8585C110.044 13.8585 109.132 14.2448 108.412 15.0174L101.357 21.9224C100.637 22.8399 100.301 23.8056 100.301 24.9163ZM104.093 82.0884C104.093 83.2473 104.477 84.2614 105.292 85.1305L108.412 88.1726C109.132 88.9452 110.044 89.3315 111.195 89.3315C112.347 89.3315 113.307 88.9452 114.075 88.1243C114.843 87.3035 115.227 86.3377 115.227 85.1305C115.227 84.0682 114.843 83.1025 114.075 82.3299L110.955 79.1912C110.188 78.4186 109.276 78.0323 108.22 78.0323C107.068 78.0323 106.108 78.4186 105.34 79.1912C104.525 79.9638 104.093 80.9295 104.093 82.0884ZM111.147 51.6191C111.147 52.7297 111.579 53.6472 112.395 54.4198C113.163 55.1924 114.171 55.5787 115.323 55.5787H125.113C126.217 55.5787 127.128 55.1924 127.896 54.4681C128.664 53.7438 129 52.778 129 51.6191C129 50.4602 128.616 49.4945 127.896 48.7219C127.176 47.9493 126.217 47.5147 125.113 47.5147H115.323C114.171 47.5147 113.211 47.901 112.395 48.7219C111.531 49.5428 111.147 50.5085 111.147 51.6191Z" fill="white"/>
</svg>
