<svg width="129" height="99" viewBox="0 0 129 99" fill="none" xmlns="http://www.w3.org/2000/svg">
<path d="M0 68.93C0 62.0012 2.07777 55.9086 6.29268 50.5327C10.5076 45.1569 15.9098 41.7522 22.5587 40.259C23.9241 34.1066 26.7142 28.7308 30.8698 24.1315C35.0253 19.5322 40.0713 16.2469 45.8891 14.2758C49.5697 13.0214 53.3691 12.3644 57.3465 12.3644C62.1551 12.3644 66.8449 13.3201 71.2973 15.2315C72.9595 12.4241 74.9185 9.97514 77.1744 7.94427C79.4303 5.91341 81.7455 4.30066 84.1201 3.22549C86.4947 2.15033 88.8693 1.31409 91.1252 0.776506C93.381 0.238923 95.6369 0 97.774 0C100.03 0 102.464 0.298656 105.076 0.955701L109.944 2.44899C110.775 2.80737 111.012 3.22549 110.775 3.76307L109.944 7.34696C109.528 9.19863 109.35 10.9308 109.35 12.4839C109.35 14.3355 109.647 16.2469 110.241 18.1583C110.834 20.0697 111.665 21.9214 112.853 23.7731C113.981 25.6248 115.584 27.2375 117.602 28.7308C119.62 30.2241 121.876 31.359 124.429 32.1355L128.11 33.4496C128.703 33.6288 129 33.9274 129 34.4053C129 34.5247 128.941 34.6442 128.881 34.8234L127.813 38.8254C126.21 45.2764 123.182 50.3536 118.908 54.1764C121.283 58.3576 122.589 62.8374 122.767 67.5562C122.826 67.8548 122.826 68.273 122.826 68.93C122.826 74.2461 121.52 79.2038 118.849 83.7434C116.237 88.283 112.615 91.8669 108.163 94.495C103.651 97.1232 98.7239 98.497 93.4404 98.497H29.2669C23.9834 98.497 19.0561 97.183 14.5444 94.495C10.0327 91.8071 6.53014 88.2232 3.91809 83.7434C1.30603 79.2635 0 74.3058 0 68.93ZM10.1514 68.93C10.1514 74.2461 12.0511 78.8454 15.8504 82.728C19.6498 86.6105 24.1022 88.5816 29.2669 88.5816H93.4404C98.7239 88.5816 103.236 86.6702 106.976 82.7877C110.716 78.9051 112.615 74.3058 112.615 68.93C112.615 63.6736 110.716 59.1938 106.916 55.4307C103.117 51.6677 98.6052 49.7562 93.381 49.7562H82.8141L82.2204 45.2764C81.6268 39.2435 79.1335 34.0469 74.7404 29.806C70.3474 25.565 65.1233 23.1758 59.1275 22.6382C58.9494 22.6382 58.6525 22.6382 58.237 22.5785C57.8214 22.5187 57.584 22.5187 57.3465 22.5187C54.3189 22.5187 51.2913 23.116 48.2043 24.2509V24.1315C43.8707 25.804 40.1901 28.5516 37.2812 32.3147C34.3129 36.0778 32.532 40.3784 31.9383 45.2764L31.5228 49.577L27.486 49.7562C22.4993 50.3536 18.3438 52.4442 15.0193 56.0878C11.6949 59.7314 10.1514 63.9723 10.1514 68.93ZM79.9052 20.4879C86.1979 25.9234 90.116 32.2549 91.6001 39.4824H93.4998C100.861 39.4824 107.154 41.812 112.318 46.5307C114.277 44.6791 115.762 42.5287 116.83 40.1395C111.428 37.571 107.154 33.6288 104.007 28.3724C100.92 23.116 99.3175 17.561 99.3175 11.7671V10.3335C99.0207 10.2738 98.5458 10.2738 97.8928 10.2738C94.4496 10.2141 91.0658 11.0503 87.8007 12.902C84.5357 14.6939 81.8642 17.2026 79.9052 20.4879Z" fill="white"/>
</svg>
