<svg width="129" height="120" viewBox="0 0 129 120" fill="none" xmlns="http://www.w3.org/2000/svg">
<path d="M0 66.2052C0 67.6668 0.487201 68.8577 1.51574 69.8322C2.54427 70.8066 3.84348 71.2396 5.41335 71.2396H14.5619C16.0235 71.2396 17.2686 70.7524 18.2971 69.778C19.3256 68.8036 19.867 67.6127 19.867 66.2052C19.867 64.6353 19.3798 63.3361 18.3512 62.3617C17.3227 61.3873 16.0776 60.846 14.616 60.846H5.41335C3.84348 60.846 2.54427 61.3332 1.51574 62.3617C0.487201 63.282 0 64.5812 0 66.2052ZM9.58162 99.6597C9.58162 104.911 11.4763 109.458 15.3198 113.301C19.1632 117.145 23.6563 119.039 28.9073 119.039H66.0428C71.2937 119.039 75.7868 117.145 79.522 113.355C83.2572 109.566 85.1519 105.019 85.1519 99.6597C85.1519 97.0613 84.773 94.8418 84.0151 93.0013C88.5082 90.1322 92.081 86.2887 94.6794 81.525C97.2778 76.7612 98.6311 71.6186 98.6311 66.1511C98.6311 61.7663 97.765 57.5439 96.0327 53.538C94.3005 49.5321 91.9727 46.0676 89.1036 43.1985C86.2346 40.3294 82.77 38.0017 78.7642 36.2694C74.7583 34.5371 70.59 33.671 66.2052 33.671C60.3047 33.671 54.8372 35.1326 49.8569 38.0558C44.8766 40.979 40.9249 44.9308 38.0558 49.8569C35.1867 54.8372 33.7793 60.2505 33.7793 66.1511V67.9916C28.3659 71.0772 24.7931 75.5703 23.0608 81.4708C18.9467 82.77 15.6987 85.0436 13.2627 88.3458C10.8267 91.6479 9.58162 95.4373 9.58162 99.6597ZM18.0264 23.0067C18.0264 24.5225 18.5136 25.7675 19.4339 26.6337L28.1494 35.7822C30.6937 37.731 33.2379 37.731 35.7822 35.7822C36.8107 34.7537 37.2979 33.5086 37.2979 31.9929C37.2979 30.5313 36.8107 29.2862 35.7822 28.2035L26.8502 19.2715C25.7134 18.243 24.4142 17.7016 23.0608 17.7016C21.5451 17.7016 20.3 18.1888 19.3798 19.2174C18.4595 20.2459 18.0264 21.491 18.0264 23.0067ZM20.3 99.6597C20.3 97.3861 21.0038 95.4373 22.4654 93.8133C23.927 92.1893 25.7675 91.269 27.987 91.0525L31.3433 90.6194C32.047 90.6194 32.4259 90.1863 32.4259 89.3743L32.9131 86.3428C33.2921 83.2031 34.5913 80.6047 36.8649 78.5476C39.1385 76.4364 41.791 75.4079 44.8766 75.4079C48.0164 75.4079 50.7772 76.4364 53.0508 78.5476C55.3785 80.6588 56.7319 83.2572 57.1108 86.3428L57.5439 89.8615C57.8687 90.6735 58.3017 91.1066 58.8431 91.1066H65.9887C68.3164 91.1066 70.3193 91.9727 72.0516 93.6509C73.7839 95.329 74.5959 97.3319 74.5959 99.7138C74.5959 102.15 73.7297 104.207 72.0516 105.939C70.3735 107.671 68.3164 108.538 65.9887 108.538H28.9073C26.4713 108.538 24.4142 107.671 22.7902 105.939C21.112 104.207 20.3 102.096 20.3 99.6597ZM44.227 65.0684C44.606 59.1679 46.8796 54.1876 51.102 50.1276C55.2702 46.1217 60.3588 44.0646 66.2052 44.0646C72.214 44.0646 77.3567 46.23 81.5791 50.5065C85.8015 54.783 87.9127 60.034 87.9127 66.1511C87.9127 69.9404 86.9924 73.4591 85.1519 76.7071C83.3114 79.9551 80.8212 82.5535 77.6815 84.5564C74.4876 81.9039 70.8065 80.6047 66.6924 80.6047C65.1225 75.841 62.3076 72.1058 58.3559 69.2908C54.4041 66.4759 49.911 65.0684 44.9308 65.0684H44.227ZM60.9543 17.7016C60.9543 19.1632 61.4956 20.4624 62.5241 21.491C63.5527 22.5195 64.7977 23.0609 66.2593 23.0609C67.7751 23.0609 69.0201 22.5195 70.0487 21.491C71.0772 20.4624 71.6185 19.2174 71.6185 17.7016V5.03441C71.6185 3.62694 71.0772 2.43601 70.0487 1.4616C69.0201 0.487201 67.7751 0 66.2593 0C64.7977 0 63.5527 0.487201 62.5241 1.4616C61.4956 2.43601 60.9543 3.62694 60.9543 5.03441V17.7016ZM95.1666 100.147C95.1666 101.608 95.6538 102.854 96.6282 103.936L105.506 112.706C107.78 114.979 110.324 114.979 113.139 112.706C114.113 111.786 114.546 110.595 114.546 109.025C114.546 107.563 114.059 106.372 113.139 105.398L103.99 96.3575C103.016 95.4373 101.771 95.0042 100.309 95.0042C98.7935 95.0042 97.6026 95.4914 96.6282 96.4658C95.6538 97.4402 95.1666 98.6853 95.1666 100.147ZM95.1666 31.8846C95.1666 33.4003 95.6538 34.6995 96.6282 35.7822C97.6026 36.7566 98.8477 37.2438 100.309 37.2438C101.771 37.2438 103.016 36.7566 103.99 35.7822L113.139 26.6337C114.113 25.7134 114.546 24.5225 114.546 23.0067C114.546 21.491 114.005 20.2459 112.976 19.2715C111.948 18.2971 110.703 17.7558 109.187 17.7558C107.78 17.7558 106.535 18.2971 105.506 19.3256L96.6282 28.1494C95.6538 29.1238 95.1666 30.3689 95.1666 31.8846ZM109.133 66.2052C109.133 67.6668 109.62 68.8577 110.649 69.8322C111.677 70.8066 112.976 71.2396 114.546 71.2396H123.695C125.157 71.2396 126.402 70.7524 127.43 69.778C128.459 68.8036 129 67.6127 129 66.2052C129 64.6353 128.513 63.3361 127.484 62.3617C126.456 61.3873 125.211 60.846 123.749 60.846H114.601C113.031 60.846 111.731 61.3332 110.703 62.3617C109.674 63.282 109.133 64.5812 109.133 66.2052Z" fill="white"/>
</svg>
