<svg width="129" height="129" viewBox="0 0 129 129" fill="none" xmlns="http://www.w3.org/2000/svg">
<path d="M0 67.6139C0 75.3662 2.77356 82.011 8.26166 87.6066C13.7498 93.2022 20.4771 96.1749 28.3257 96.4081C29.0338 96.4081 29.3879 96.0583 29.3879 95.4172V87.6066C29.3879 86.9654 29.0338 86.6157 28.3257 86.6157C23.3097 86.3826 19.0018 84.3425 15.4611 80.6121C11.8614 76.8816 10.091 72.5101 10.091 67.5556C10.091 62.6011 11.7434 58.3461 15.107 54.7323C18.4707 51.1184 22.6016 49.1366 27.4995 48.7286L30.6272 48.3206C31.3943 48.3206 31.8074 47.9709 31.8074 47.3297L32.2205 44.2987C32.8696 37.9454 35.5252 32.5829 40.3051 28.2696C45.0851 23.9563 50.6912 21.7996 57.1825 21.7996C63.6148 21.7996 69.221 23.9563 74.0599 28.2113C78.8989 32.4663 81.6135 37.7705 82.3216 44.0656L82.7937 47.388C82.7937 48.0875 83.1478 48.4372 83.7969 48.4372H93.3568C98.7269 48.4372 103.271 50.3024 107.107 54.0911C110.942 57.8215 112.831 62.3097 112.831 67.5556C112.831 72.5101 111.06 76.8816 107.461 80.6121C103.861 84.3425 99.6121 86.3243 94.5961 86.6157C93.7699 86.6157 93.3568 86.9654 93.3568 87.6066V95.4172C93.3568 96.0583 93.7699 96.4081 94.5961 96.4081C99.7891 96.2915 104.51 94.8926 108.818 92.2696C113.126 89.6467 116.548 86.1494 119.027 81.7778C121.505 77.4062 122.745 72.6849 122.745 67.6139C122.745 62.3097 121.446 57.4718 118.909 53.1585C123.276 49.3115 126.226 44.2987 127.879 38.1202L128.882 33.9235C128.941 33.8652 129 33.6904 129 33.4572C129 33.0492 128.705 32.6995 128.056 32.5246L124.456 31.5337C121.86 30.776 119.558 29.6685 117.552 28.2113C115.545 26.7541 113.952 25.1221 112.772 23.3151C111.591 21.5082 110.765 19.7013 110.175 17.7778C109.585 15.9126 109.29 14.0474 109.29 12.2404C109.29 10.6667 109.467 8.97633 109.88 7.22769L110.529 3.61384C110.647 3.08925 110.411 2.62295 109.703 2.33151L104.982 0.932604C102.386 0.291438 99.9662 0 97.6057 0C95.4222 0 93.2388 0.233152 90.9963 0.757742C88.7539 1.28233 86.4524 2.04007 84.0329 3.14754C81.6134 4.25501 79.312 5.7705 77.0695 7.81057C74.8271 9.85064 72.8797 12.1822 71.2274 14.9217C66.4474 12.9982 61.7855 12.0073 57.1825 12.0073C48.8619 12.0073 41.4263 14.572 34.9941 19.7013C28.5618 24.8306 24.3719 31.3588 22.5425 39.3443C15.9332 40.9763 10.5041 44.4153 6.31427 49.6029C2.12443 54.8488 0 60.8525 0 67.6139ZM37.7086 91.4536C37.7086 92.8525 38.1807 94.0183 39.1249 94.9509C40.0691 95.9418 41.1903 96.4081 42.6066 96.4081C44.0229 96.4081 45.2031 95.9418 46.1473 94.9509C47.0915 93.96 47.5636 92.7942 47.5636 91.4536C47.5636 90.1713 47.0915 89.0055 46.1473 88.0729C45.2031 87.1403 44.0229 86.674 42.6066 86.674C41.2493 86.674 40.0691 87.1403 39.1249 88.0729C38.1807 89.0055 37.7086 90.113 37.7086 91.4536ZM37.7086 112.67C37.7086 114.011 38.1807 115.118 39.1249 116.051C40.0691 116.984 41.2493 117.45 42.5476 117.45C43.9639 117.45 45.1441 116.984 46.0883 116.109C47.0325 115.177 47.5046 114.069 47.5046 112.67C47.5046 111.271 47.0325 110.164 46.0883 109.231C45.1441 108.299 43.9639 107.891 42.5476 107.891C41.1313 107.891 40.0101 108.357 39.0659 109.231C38.1807 110.106 37.7086 111.271 37.7086 112.67ZM56.5924 102.761C56.5924 104.16 57.0645 105.326 58.0087 106.2C58.9529 107.133 60.1331 107.599 61.4314 107.599C62.8477 107.599 64.0279 107.133 65.0311 106.2C66.0343 105.268 66.5064 104.102 66.5064 102.761C66.5064 101.363 66.0343 100.197 65.0311 99.2059C64.0279 98.215 62.8477 97.6904 61.4314 97.6904C60.1331 97.6904 59.0119 98.215 58.0087 99.2059C57.0055 100.197 56.5924 101.363 56.5924 102.761ZM56.5924 81.5447C56.5924 82.9436 57.0645 84.051 58.0087 84.9254C58.9529 85.858 60.1331 86.3243 61.4314 86.3243C62.8477 86.3243 64.0869 85.858 65.0311 84.9836C65.9753 84.1093 66.5064 82.9436 66.5064 81.5447C66.5064 80.204 66.0343 79.0383 65.0311 78.0474C64.0279 77.0565 62.8477 76.5902 61.4314 76.5902C60.1331 76.5902 58.9529 77.0565 58.0087 78.0474C57.0645 79.0383 56.5924 80.204 56.5924 81.5447ZM56.5924 124.153C56.5924 125.435 57.0645 126.543 58.0087 127.475C59.0119 128.466 60.1331 128.933 61.4314 128.933C62.8477 128.933 64.0279 128.466 65.0311 127.534C66.0343 126.601 66.5064 125.494 66.5064 124.095C66.5064 122.696 66.0343 121.53 65.0311 120.539C64.0279 119.548 62.8477 119.024 61.4314 119.024C60.1331 119.024 59.0119 119.548 58.0087 120.539C57.1235 121.588 56.5924 122.812 56.5924 124.153ZM75.7123 91.4536C75.7123 92.8525 76.1844 94.0183 77.1876 94.9509C78.1908 95.8835 79.312 96.4081 80.7283 96.4081C82.1446 96.4081 83.2658 95.9418 84.21 94.9509C85.1542 93.96 85.6263 92.7942 85.6263 91.4536C85.6263 90.1713 85.1542 89.0055 84.21 88.0729C83.2658 87.1403 82.1446 86.674 80.7283 86.674C79.312 86.674 78.1908 87.1403 77.1876 88.0729C76.1844 89.0055 75.7123 90.113 75.7123 91.4536ZM75.7123 112.67C75.7123 114.011 76.1844 115.118 77.1285 116.051C78.0727 116.984 79.253 117.45 80.6693 117.45C82.0855 117.45 83.2068 116.984 84.151 116.051C85.0952 115.118 85.5082 114.011 85.5082 112.612C85.5082 111.213 85.0361 110.106 84.151 109.173C83.2068 108.24 82.0855 107.832 80.6693 107.832C79.253 107.832 78.0727 108.299 77.1285 109.173C76.1844 110.106 75.7123 111.271 75.7123 112.67ZM79.7251 20.051C81.5544 16.9035 84.151 14.4554 87.3966 12.7067C90.6423 10.9581 94.0059 10.0838 97.4877 10.0255C98.3728 10.0255 99.022 10.0838 99.435 10.1421V11.949C99.435 17.6029 100.969 22.9071 104.038 27.9199C107.107 32.9326 111.414 36.7213 116.844 39.3443C115.899 41.4426 114.424 43.541 112.359 45.5811C107.107 40.9763 100.792 38.7031 93.2978 38.7031H91.4684C89.8751 31.5337 85.9803 25.3552 79.7251 20.051Z" fill="white"/>
</svg>
