<svg width="129" height="131" viewBox="0 0 129 131" fill="none" xmlns="http://www.w3.org/2000/svg">
<path d="M0 77.1476C0 71.5273 1.71873 66.6275 5.15618 62.3041C8.59363 57.9808 12.9859 55.1946 18.2376 53.9457C19.7176 47.3646 23.0596 41.9844 28.2635 37.7091C33.5152 33.4819 39.483 31.3682 46.2624 31.3682C50.9889 31.3682 55.3335 32.4251 59.2483 34.5387C61.6355 31.9927 64.4523 29.9752 67.651 28.534C70.8497 27.0929 74.1917 26.3724 77.6292 26.3724C82.1647 26.3724 86.366 27.5253 90.2332 29.783C94.1003 32.0408 97.1558 35.1151 99.3997 39.0061C101.644 42.8971 102.789 47.1244 102.789 51.6879C102.789 57.5965 100.975 62.8806 97.3468 67.4921C98.7313 70.4224 99.3997 73.6409 99.3997 77.1956C99.3997 81.4229 98.3971 85.3619 96.3442 88.9647C94.339 92.5675 91.57 95.4978 88.037 97.6595C84.5518 99.8692 80.6847 101.022 76.4834 101.118C75.8627 101.118 75.5285 100.83 75.5285 100.253V93.8165C75.5285 93.24 75.8627 92.9518 76.4834 92.9518C80.5892 92.7597 84.0267 91.0784 86.8912 88.004C89.7557 84.9296 91.188 81.2788 91.188 77.1476C91.188 72.8723 89.6603 69.2215 86.557 66.1471C83.4537 63.0727 79.8253 61.5355 75.5285 61.5355H67.842C67.2691 61.5355 66.9826 61.2473 66.9826 60.7189L66.6007 57.8847C66.0755 52.6967 63.8316 48.3253 59.9167 44.8186C56.0019 41.3119 51.4186 39.5345 46.2624 39.5345C41.0107 39.5345 36.4752 41.3119 32.6081 44.8186C28.7409 48.3253 26.5448 52.6967 26.0674 57.8847L25.7332 60.7189C25.5899 61.1512 25.208 61.3434 24.6828 61.3434L22.248 61.5355C18.2376 62.0159 14.8479 63.6972 12.1743 66.6275C9.50074 69.5577 8.16395 73.0644 8.16395 77.0996V77.3397H8.30718C8.35492 82.0474 10.1214 85.8904 13.6066 89.0128C14.6569 89.9255 15.8505 90.7421 17.1395 91.3666V91.4627C19.097 92.3754 21.0544 92.8557 22.9164 92.9518C23.4415 92.9518 23.728 93.24 23.728 93.7684V100.205C23.728 100.734 23.4415 101.022 22.9164 101.022C20.4338 100.878 18.0944 100.398 15.8505 99.5809V99.677C11.8879 98.2839 8.49815 95.9782 5.77683 92.8077C3.05551 89.6373 1.2413 85.8904 0.477424 81.7111V81.519C0.429682 81.4709 0.429682 81.4229 0.429682 81.3749C0.095485 80.1259 0 78.7328 0 77.1476ZM26.2583 111.59C26.2583 111.446 26.3061 111.254 26.3538 110.966C26.4016 110.726 26.4493 110.533 26.4493 110.389L26.879 107.555C27.2132 106.402 27.8338 105.586 28.8364 105.009C29.7913 104.433 30.8893 104.337 32.0829 104.625C33.181 104.961 33.9449 105.586 34.5178 106.594C35.0429 107.555 35.1384 108.564 34.852 109.573L34.1836 112.455C33.7061 114.569 32.5126 115.625 30.5551 115.625C30.4119 115.625 30.1732 115.625 29.839 115.577C29.5048 115.529 29.3138 115.529 29.2184 115.529C28.2158 115.241 27.4996 114.713 27.0222 113.944C26.497 113.223 26.2583 112.407 26.2583 111.59ZM29.7913 97.4673C29.7913 96.3144 30.1732 95.4017 30.8893 94.6331C31.6532 93.8645 32.5603 93.5283 33.7061 93.5283C34.852 93.5283 35.7591 93.9126 36.5229 94.6331C37.2868 95.4017 37.621 96.3144 37.621 97.4673C37.621 98.5722 37.2391 99.4849 36.5229 100.253C35.8068 101.022 34.852 101.358 33.7061 101.358C32.6081 101.358 31.701 100.974 30.9848 100.205C30.1732 99.4368 29.7913 98.5241 29.7913 97.4673ZM37.621 126.193C37.621 126.001 37.6688 125.665 37.812 125.089L38.4326 122.302C38.7668 121.198 39.4352 120.381 40.3901 119.853C41.3927 119.276 42.3953 119.18 43.3979 119.516C44.4959 119.708 45.3553 120.333 45.9282 121.294C46.5011 122.254 46.6443 123.359 46.3101 124.56L45.6895 127.394C45.2121 129.364 43.923 130.325 41.8701 130.325C41.6314 130.325 41.2494 130.277 40.7243 130.133C39.6739 129.844 38.9101 129.316 38.3849 128.547C37.8597 127.779 37.621 127.01 37.621 126.193ZM40.1514 18.062C40.1514 16.9091 40.5333 15.9483 41.3449 15.1797C42.1566 14.4111 43.1591 14.0268 44.3527 14.0268C45.4985 14.0268 46.4534 14.4111 47.2172 15.1797L50.225 18.3502C51.0366 19.1668 51.4186 20.1276 51.4186 21.2324C51.4186 22.3853 50.9412 23.4421 49.9863 24.3068C49.0315 25.1714 48.0766 25.5557 47.074 25.4116C46.0714 25.3156 45.2121 24.8832 44.4482 24.1146L41.3449 20.9442C40.5811 20.1275 40.1514 19.1668 40.1514 18.062ZM41.3927 112.263C41.3927 111.158 41.7746 110.197 42.4908 109.477C43.2546 108.708 44.1617 108.372 45.3076 108.372C46.4534 108.372 47.3605 108.756 48.1244 109.477C48.8882 110.245 49.2224 111.158 49.2224 112.263C49.2224 113.416 48.8405 114.328 48.1244 115.097C47.3605 115.866 46.4534 116.202 45.3076 116.202C44.2572 116.202 43.3501 115.817 42.5385 115.001C41.7746 114.232 41.3927 113.32 41.3927 112.263ZM44.3527 101.358C44.3527 100.926 44.4004 100.494 44.4959 100.109L45.594 95.786C45.9282 94.6811 46.5966 93.8165 47.5514 93.24C48.554 92.6636 49.5566 92.5195 50.607 92.8557C51.7528 93.192 52.5644 93.8165 53.1373 94.7772C53.7102 95.738 53.8057 96.6987 53.4715 97.7555L52.2302 102.079C51.8483 103.376 51.1799 104.289 50.2728 104.817C49.3657 105.345 48.3153 105.393 47.2172 105.105C46.2624 104.913 45.5463 104.433 45.0688 103.664C44.4959 102.799 44.2572 102.079 44.3527 101.358ZM57.5296 111.638C57.5296 111.494 57.5296 111.302 57.5774 111.014C57.6251 110.726 57.6251 110.581 57.6251 110.485L58.0548 107.651C58.389 106.498 59.0096 105.682 60.0122 105.105C60.9671 104.529 62.0651 104.433 63.2587 104.721C64.3568 105.057 65.1684 105.73 65.6936 106.69C66.2665 107.699 66.362 108.708 66.0278 109.717L65.3594 112.599C64.8819 114.665 63.6884 115.721 61.7309 115.721C61.5877 115.721 61.349 115.721 61.0148 115.673C60.6806 115.625 60.4896 115.625 60.3942 115.625C59.4393 115.337 58.7232 114.809 58.2457 114.04C57.7683 113.223 57.5296 112.455 57.5296 111.638ZM61.0625 97.5153C61.0625 96.3624 61.4445 95.4497 62.1606 94.6811C62.9245 93.9126 63.8316 93.5763 64.9774 93.5763C66.1232 93.5763 67.0303 93.9606 67.7942 94.6811C68.5581 95.4497 68.8923 96.3624 68.8923 97.5153C68.8923 98.6202 68.5104 99.5809 67.7942 100.301C67.0303 101.07 66.1232 101.406 64.9774 101.406C63.8794 101.406 62.9245 101.022 62.2084 100.205C61.4445 99.4849 61.0625 98.5722 61.0625 97.5153ZM65.98 39.3424C69.9904 42.9932 72.664 47.7009 74.0962 53.4173H75.5762C82.1647 53.4173 87.7506 55.7231 92.3816 60.3827C93.8616 57.7406 94.6255 54.8103 94.6255 51.6399C94.6255 46.9323 92.9545 42.9452 89.6603 39.6306C86.366 36.3641 82.3557 34.6828 77.6769 34.6828C73.0936 34.6828 69.1788 36.22 65.98 39.3424ZM73.6188 14.0268V4.17923C73.6188 3.02634 74.0007 2.0656 74.8124 1.24896C75.624 0.432334 76.5788 0 77.6769 0C78.8227 0 79.7776 0.384297 80.5415 1.20093C81.3053 2.01756 81.6873 3.02634 81.6873 4.17923V14.0268C81.6873 15.1797 81.3053 16.1885 80.5415 17.0051C79.7776 17.8218 78.8227 18.2061 77.6769 18.2061C76.5788 18.2061 75.624 17.7737 74.8124 16.9571C74.0007 16.1405 73.6188 15.1797 73.6188 14.0268ZM100.259 25.0273C100.259 23.8744 100.641 22.9137 101.357 22.1451L108.232 15.1797C108.948 14.3631 109.855 13.9788 111.001 13.9788C112.147 13.9788 113.102 14.3631 113.866 15.1797C114.725 15.9483 115.107 16.9091 115.107 18.062C115.107 19.2148 114.677 20.1756 113.866 20.9442L106.991 27.9576C106.084 28.8703 105.081 29.2546 103.983 29.2066C102.885 29.1105 102.026 28.7262 101.357 27.9576C100.593 27.189 100.259 26.2283 100.259 25.0273ZM103.935 82.2395C103.935 81.0866 104.317 80.1259 105.129 79.3093C105.94 78.4926 106.895 78.1083 107.993 78.1083C109.091 78.1083 110.046 78.5407 110.906 79.3573L113.866 82.3836C114.725 83.2003 115.107 84.2091 115.107 85.3139C115.107 86.4668 114.677 87.4275 113.866 88.1961C113.197 89.0128 112.338 89.4451 111.288 89.4451L111.192 89.349C110.046 89.349 109.091 88.9647 108.232 88.1961L105.129 85.1218C104.365 84.3051 103.935 83.3444 103.935 82.2395ZM110.953 51.6399C110.953 50.487 111.335 49.5263 112.147 48.7577C112.959 47.9891 113.913 47.6048 115.059 47.6048H124.894C126.04 47.6048 127.043 47.9891 127.806 48.7577C128.57 49.5263 129 50.487 129 51.6399C129 52.7928 128.618 53.7535 127.806 54.5702C126.995 55.3868 126.04 55.7711 124.894 55.7711H115.059C113.913 55.7711 112.959 55.3388 112.195 54.4741C111.335 53.7535 110.953 52.7928 110.953 51.6399Z" fill="white"/>
</svg>
