<svg width="129" height="130" viewBox="0 0 129 130" fill="none" xmlns="http://www.w3.org/2000/svg">
<path d="M0 76.8633C0 83.1887 2.20431 88.6515 6.56501 93.156C10.9257 97.6605 16.3406 100.104 22.7619 100.392C23.3369 100.392 23.6244 100.104 23.6244 99.5773V93.2039C23.6244 92.6289 23.3369 92.3414 22.7619 92.3414C18.6408 92.1497 15.1906 90.5204 12.3633 87.5494C9.53603 84.5784 8.14636 80.9844 8.14636 76.8154C8.14636 72.7901 9.48811 69.244 12.1716 66.3209C14.8551 63.3499 18.2095 61.7206 22.2348 61.3852L24.7745 61.0019C25.3016 61.0019 25.5412 60.7623 25.5412 60.331L25.9246 57.6954C26.4996 52.4721 28.7519 48.1114 32.5375 44.6612C36.3232 41.211 40.8276 39.5338 46.0988 39.5338C51.37 39.5338 55.9224 41.2589 59.8039 44.7091C63.7333 48.1594 65.9376 52.4721 66.4168 57.5995L66.7522 60.3789C66.8481 60.906 67.2314 61.1935 67.8065 61.1935H75.4736C79.7385 61.1935 83.3804 62.727 86.4473 65.7938C89.5141 68.8607 91.0475 72.5505 91.0475 76.8633C91.0475 81.0323 89.6579 84.5784 86.8306 87.5973C84.0033 90.6163 80.5531 92.1497 76.432 92.3893C75.8091 92.3893 75.4736 92.6768 75.4736 93.2518V99.6252C75.4736 100.152 75.8091 100.44 76.432 100.44C82.8053 100.248 88.1724 97.8521 92.581 93.2998C96.9417 88.7474 99.146 83.2845 99.146 76.9112C99.146 73.6527 98.523 70.49 97.325 67.2793C101.063 62.679 102.884 57.312 102.884 51.2262C102.884 47.8239 102.213 44.6133 100.919 41.4985C99.6252 38.3837 97.8042 35.7481 95.552 33.4959C93.2998 31.2437 90.6163 29.4707 87.5494 28.1289C84.4825 26.7871 81.1761 26.1163 77.7738 26.1163C70.3941 26.1163 64.2125 28.8956 59.2767 34.4543C55.0119 32.3458 50.6033 31.2916 46.1467 31.2916C39.39 31.2916 33.4001 33.4001 28.2247 37.5691C23.0494 41.7381 19.7429 47.153 18.2574 53.766C12.8904 55.0119 8.4818 57.7433 5.07949 62.0561C1.67719 66.3689 0 71.3046 0 76.8633ZM25.6371 110.551C25.6371 111.366 25.8767 112.18 26.4038 112.995C26.9309 113.809 27.6976 114.337 28.656 114.672C29.7582 115.007 30.8124 114.959 31.7229 114.48C32.6813 114.049 33.3042 113.139 33.6397 111.797L34.3105 108.874C34.5501 107.772 34.4064 106.765 33.8314 105.855C33.2563 104.896 32.4417 104.273 31.3395 103.938C30.2374 103.603 29.2311 103.746 28.2727 104.321C27.3143 104.896 26.7392 105.711 26.4517 106.813L25.7808 109.64C25.685 109.928 25.6371 110.215 25.6371 110.551ZM29.3269 96.6541C29.3269 97.7084 29.7103 98.6189 30.477 99.3856C31.2437 100.248 32.1542 100.631 33.1605 100.631C34.3105 100.631 35.2689 100.248 36.0357 99.4814C36.8503 98.7147 37.2337 97.8042 37.2337 96.6541C37.2337 95.552 36.8503 94.5936 36.0357 93.8269C35.221 93.0602 34.2626 92.6768 33.1605 92.6768C32.0583 92.6768 31.1478 93.0602 30.3811 93.779C29.6144 94.4978 29.3269 95.552 29.3269 96.6541ZM32.25 85.7764C32.2021 86.5431 32.3938 87.2619 32.873 87.9328C33.3522 88.6515 34.1189 89.1307 35.1731 89.4662C36.1794 89.7537 37.1378 89.6579 38.1441 89.1307C39.1504 88.6036 39.8213 87.789 40.1568 86.6868L41.4506 82.3741C41.786 81.224 41.6902 80.1698 41.1152 79.2593C40.5401 78.3488 39.6776 77.7258 38.5275 77.3904C37.4733 77.055 36.4669 77.1508 35.5085 77.7258C34.5501 78.253 33.8793 79.0676 33.5438 80.1218L32.3938 84.5304C32.2979 85.2972 32.25 85.7284 32.25 85.7764ZM37.7608 125.502C37.7608 126.316 38.0004 127.083 38.5275 127.85C39.0546 128.617 39.8213 129.144 40.8756 129.431C41.3068 129.527 41.6902 129.575 42.0256 129.575C44.0862 129.575 45.38 128.617 45.8592 126.652L46.4822 123.825C46.7697 122.579 46.6259 121.524 46.0988 120.566C45.5717 119.608 44.7091 119.033 43.607 118.793C42.6007 118.458 41.5943 118.553 40.588 119.129C39.5817 119.704 38.9588 120.518 38.6233 121.572L37.9524 124.448C37.8087 124.975 37.7608 125.358 37.7608 125.502ZM40.4443 17.9699C40.4443 19.12 40.8276 20.0784 41.5944 20.8451L44.7571 23.912C45.4279 24.6787 46.2905 25.062 47.3447 25.1579C48.399 25.2537 49.4053 24.8224 50.3157 23.912C51.0825 23.1452 51.4658 22.1868 51.4658 21.0847C51.4658 19.9346 51.0825 18.9762 50.3157 18.2095L47.2968 15.0947C46.578 14.328 45.6196 13.9446 44.5175 13.8488C43.4153 13.8488 42.4569 14.2322 41.6423 15.0468C40.8756 15.8614 40.4443 16.8198 40.4443 17.9699ZM41.5464 111.605C41.5464 112.707 41.9298 113.618 42.6965 114.384C43.4632 115.151 44.4216 115.535 45.4759 115.535C46.6259 115.535 47.5364 115.151 48.3031 114.432C49.0698 113.666 49.4053 112.755 49.4053 111.605C49.4053 110.503 49.0219 109.592 48.3031 108.826C47.5364 108.059 46.6259 107.724 45.4759 107.724C44.3258 107.724 43.4153 108.107 42.6486 108.826C41.8819 109.545 41.5464 110.503 41.5464 111.605ZM44.5175 100.727C44.4695 101.446 44.6612 102.213 45.1883 102.98C45.6675 103.746 46.3863 104.225 47.3447 104.417C48.4469 104.705 49.4532 104.609 50.4116 104.13C51.37 103.65 51.9929 102.74 52.3763 101.446L53.6222 97.1333C53.9577 96.0791 53.8618 95.0728 53.2868 94.1144C52.7117 93.156 51.8971 92.533 50.747 92.1976C49.6928 91.8622 48.6865 92.0059 47.6802 92.581C46.6738 93.156 46.0509 94.0186 45.7155 95.1207L44.6612 99.4335C44.5654 99.8168 44.5175 100.248 44.5175 100.727ZM57.7433 111.03C57.7433 111.845 57.9829 112.611 58.4621 113.33C58.9413 114.049 59.6601 114.576 60.6664 114.864C60.8102 114.864 61.0498 114.912 61.3373 114.959C61.6248 115.007 61.8644 115.055 62.0082 115.055C63.9729 115.055 65.1709 114.001 65.6501 111.893L66.3209 109.017C66.6564 108.011 66.5605 107.005 65.9855 105.999C65.4105 104.992 64.5958 104.369 63.5416 104.034C62.3436 103.746 61.2415 103.842 60.2831 104.417C59.3247 104.992 58.6538 105.807 58.3183 106.957L57.8871 109.784C57.8871 109.832 57.8871 110.024 57.8391 110.311C57.7912 110.647 57.7433 110.838 57.7433 111.03ZM61.2894 96.8458C61.2894 97.948 61.6727 98.8585 62.4395 99.5773C63.1582 100.344 64.0687 100.727 65.2188 100.727C66.3689 100.727 67.2793 100.344 68.0461 99.6252C68.8128 98.8585 69.1482 97.948 69.1482 96.8458C69.1482 95.6958 68.7649 94.7853 68.0461 94.0186C67.2793 93.2518 66.3689 92.9164 65.2188 92.9164C64.0687 92.9164 63.1582 93.2998 62.3915 94.0186C61.6248 94.7374 61.2894 95.6958 61.2894 96.8458ZM64.2125 85.7764C64.2125 86.591 64.4521 87.3577 64.9792 88.0765C65.5063 88.7953 66.273 89.3224 67.3273 89.6099C67.4231 89.6099 67.6148 89.6579 67.9023 89.7058C68.1898 89.7537 68.4294 89.8016 68.5732 89.8016C69.1003 89.8016 69.6753 89.6579 70.3462 89.3703C71.3525 88.8432 71.9755 88.0286 72.263 86.8785L73.4131 82.5657C73.7006 81.4636 73.6048 80.4573 73.0776 79.5468C72.5505 78.6363 71.7359 77.9654 70.6816 77.63C69.5795 77.2946 68.5253 77.3904 67.6148 77.9175C66.6564 78.4446 66.0334 79.2114 65.698 80.3614L64.3562 84.7221C64.3562 84.818 64.3562 84.9617 64.3083 85.2492C64.2604 85.393 64.2125 85.5847 64.2125 85.7764ZM65.8897 39.1984C69.0524 36.0357 72.9818 34.4543 77.7259 34.4543C82.4699 34.4543 86.4952 36.0836 89.8016 39.3421C93.1081 42.6007 94.7853 46.5301 94.7853 51.2262C94.7853 54.3889 93.9227 57.4079 92.2455 60.2351C87.5494 55.539 81.9428 53.1909 75.4736 53.1909H73.9881C72.6464 47.9198 69.9149 43.2715 65.8897 39.1984ZM73.7964 13.9926C73.7964 15.0947 74.1798 16.0052 74.8986 16.7719C75.6174 17.4907 76.5758 17.8741 77.7259 17.8741C78.8759 17.8741 79.8822 17.4907 80.6969 16.7719C81.5115 16.0531 81.8949 15.0947 81.8949 13.9926V4.07318C81.8949 2.97102 81.4636 2.01263 80.649 1.19799C79.8343 0.383358 78.828 0 77.7259 0C76.6237 0 75.6653 0.383358 74.9465 1.19799C74.1798 2.01263 73.8443 2.97102 73.8443 4.07318V13.9926H73.7964ZM100.248 24.8224C100.248 26.0204 100.631 26.9788 101.35 27.6976C103.075 29.4227 104.992 29.4227 107.149 27.6976L114.001 20.8451C114.816 20.0305 115.199 19.0241 115.199 17.8261C115.199 16.6761 114.816 15.7177 114.001 14.951C113.186 14.1363 112.228 13.753 111.126 13.753C110.024 13.753 109.065 14.1363 108.203 14.903L101.35 21.9952C100.631 22.714 100.248 23.6244 100.248 24.8224ZM103.986 81.6073C103.986 82.7095 104.417 83.6679 105.28 84.4346L108.203 87.4536C109.161 88.2203 110.12 88.6036 111.126 88.6036C112.084 88.6036 113.043 88.2203 114.001 87.4536C114.816 86.6868 115.199 85.7764 115.199 84.6263C115.199 83.5241 114.816 82.5657 114.001 81.6553L110.886 78.7322C110.168 77.9175 109.257 77.5342 108.155 77.5342C107.053 77.5342 106.094 77.9175 105.28 78.7322C104.417 79.5468 103.986 80.5052 103.986 81.6073ZM111.078 51.2262C111.078 52.3763 111.509 53.2868 112.324 54.0535C113.186 54.916 114.193 55.3473 115.295 55.3473H125.023C126.125 55.3473 127.083 54.964 127.85 54.1493C128.617 53.3347 129 52.3763 129 51.2262C129 50.0761 128.617 49.1177 127.85 48.351C127.083 47.5364 126.173 47.153 125.023 47.153H115.295C114.145 47.153 113.186 47.5364 112.324 48.351C111.461 49.1657 111.078 50.1241 111.078 51.2262Z" fill="white"/>
</svg>
