<svg width="129" height="131" viewBox="0 0 129 131" fill="none" xmlns="http://www.w3.org/2000/svg">
<path d="M0 67.3962C0 73.878 1.95096 79.6591 5.85289 84.7394C9.75481 89.8198 14.8391 93.3234 21.1059 95.1921L17.2631 105.119C17.0266 105.937 17.2631 106.345 18.0907 106.345H30.6242L22.9977 130.754H24.6531L49.6609 97.9366C49.8973 97.7031 49.8973 97.4111 49.7791 97.1191C49.6017 96.8271 49.3653 96.7103 48.9514 96.7103H36.0632L50.6659 69.6152C51.0797 68.7977 50.8433 68.3305 49.8973 68.3305H32.3978C31.8657 68.3305 31.4519 68.6225 31.0972 69.2064L24.7713 86.0241C20.5738 84.973 17.0857 82.6956 14.2479 79.1919C11.4102 75.6882 10.0504 71.7758 10.0504 67.4546C10.0504 62.6078 11.7058 58.4034 15.0756 54.783C18.4455 51.2209 22.5839 49.1187 27.4908 48.5347L30.6242 48.126C31.3928 48.126 31.8066 47.7756 31.8066 47.0749L32.2204 44.0967C32.8708 37.7901 35.5312 32.4762 40.3199 28.2134C45.1086 23.9506 50.725 21.79 57.1691 21.79C63.6132 21.79 69.2296 23.9506 74.0775 28.2134C78.9253 32.4762 81.6448 37.7901 82.3543 44.0383L82.7681 47.3668C82.7681 48.0676 83.1228 48.4763 83.7731 48.4763H93.3506C98.7305 48.4763 103.283 50.345 107.126 54.0238C110.968 57.7027 112.86 62.1991 112.86 67.3378C112.86 72.3014 111.087 76.6226 107.539 80.243C103.992 83.8635 99.6764 85.9073 94.533 86.2577C93.8236 86.2577 93.4097 86.6081 93.4097 87.3672V95.3089C93.4097 96.0096 93.7644 96.36 94.533 96.36C102.396 96.1264 109.077 93.1483 114.575 87.5424C120.073 81.8781 122.792 75.1627 122.792 67.3962C122.792 62.3159 121.492 57.5859 118.89 53.0895C123.384 48.7683 126.399 43.688 127.818 37.7901L128.941 33.8193C129 33.7609 129 33.6441 129 33.4105C129 32.9434 128.704 32.6514 128.113 32.4762L124.448 31.4835C121.078 30.4908 118.181 28.8557 115.816 26.5783C113.451 24.3009 111.796 21.9068 110.791 19.4542C109.786 17.0016 109.313 14.549 109.372 12.0965C109.372 10.4614 109.549 8.82636 109.963 7.13291L110.614 3.57083C110.732 2.98689 110.495 2.51973 109.786 2.22776L105.056 0.826284C102.278 0.300732 99.8538 0.00875922 97.7255 0.00875922C95.538 -0.0496354 93.2915 0.183943 91.0449 0.709495C88.7983 1.17665 86.4335 1.99418 84.0096 3.04528C81.5857 4.09639 79.28 5.67304 77.0335 7.65846C74.7869 9.64388 72.8359 11.9797 71.1806 14.6658C66.2736 12.8556 61.6031 11.9797 57.2282 11.9797C48.8923 11.9797 41.4432 14.549 34.9991 19.6878C28.555 24.8265 24.3575 31.3667 22.5247 39.3084C15.9624 40.8266 10.5825 44.2135 6.32585 49.469C2.12832 54.6662 0 60.6808 0 67.3962ZM48.3011 125.032C48.3011 125.966 48.5967 126.842 49.1879 127.776C49.7791 128.711 50.6659 129.353 51.8483 129.703C52.7942 129.879 53.3263 129.995 53.4445 129.995C53.9766 129.995 54.7452 129.82 55.632 129.411C56.8735 128.827 57.7012 127.835 58.115 126.316L59.7704 120.185C60.1251 118.9 60.0069 117.674 59.2974 116.506C58.588 115.338 57.583 114.521 56.1641 114.112C54.8634 113.762 53.6219 113.937 52.4395 114.579C51.2571 115.28 50.4294 116.331 50.0156 117.674L48.4193 123.513L48.3011 125.032ZM56.2232 97.2359C56.2232 99.7469 57.4056 101.207 59.8295 101.615C60.6572 101.791 61.1893 101.907 61.4258 101.907C63.6723 101.907 65.1503 100.681 65.978 98.2286L67.7516 92.2723C68.1063 90.9877 67.929 89.7614 67.2786 88.5935C66.6283 87.4256 65.505 86.6081 64.1453 86.1993C62.8446 85.7905 61.544 85.9073 60.3616 86.6081C59.1792 87.3088 58.3515 88.3015 57.9377 89.703L56.4597 95.6008C56.2823 96.1264 56.2232 96.6519 56.2232 97.2359ZM72.8359 106.988C72.895 107.981 73.2498 108.915 73.9001 109.791C74.5504 110.667 75.4963 111.367 76.7379 111.776C77.6838 112.01 78.3341 112.127 78.6888 112.127C80.6989 112.127 82.1178 110.783 82.8863 108.156L84.3052 102.199C84.7191 100.856 84.6008 99.5717 83.9505 98.3454C83.3002 97.1191 82.2951 96.36 80.9945 95.9512C79.5165 95.6008 78.1567 95.776 76.9743 96.4184C75.7919 97.1191 75.0234 98.1702 74.7869 99.5133L73.0724 105.528C73.0724 105.645 73.0133 105.878 72.9542 106.229C72.8359 106.637 72.8359 106.871 72.8359 106.988ZM79.8121 19.9797C81.7631 16.7096 84.4235 14.1987 87.7342 12.4468C91.0449 10.695 94.533 9.81907 98.1393 9.81907H99.44V11.6877C99.44 15.425 100.09 19.0454 101.45 22.5491C102.81 26.0528 104.761 29.2645 107.48 32.2426C110.141 35.2207 113.333 37.5565 116.999 39.3084C115.994 41.5274 114.516 43.5128 112.506 45.323C107.126 40.7682 100.8 38.4908 93.4688 38.4908H91.5179C89.8034 31.1331 85.9015 24.9433 79.8121 19.9797ZM80.9354 78.9584C80.9354 81.4693 82.236 83.1044 84.7782 83.7467C85.6059 83.8635 86.1971 83.9803 86.5518 83.9803C88.6801 83.9803 90.1581 82.6956 90.9267 80.1846L92.582 74.1116C92.6412 73.8196 92.6412 73.4109 92.6412 72.8269C92.7003 71.8342 92.4638 70.8999 91.8135 69.9656C91.1632 69.0313 90.2172 68.3889 88.9166 68.0385C88.8575 68.0385 88.621 68.0385 88.3254 67.9802C88.0298 67.9218 87.7342 67.9218 87.5568 67.9218C86.6109 67.9218 85.665 68.2137 84.7191 68.7977C83.7731 69.3816 83.1228 70.3159 82.7681 71.5422L81.0536 77.4985C81.0536 77.5569 81.0536 77.7321 80.9945 78.0824C80.9945 78.4912 80.9354 78.7832 80.9354 78.9584Z" fill="white"/>
</svg>
