<svg width="129" height="129" viewBox="0 0 129 129" fill="none" xmlns="http://www.w3.org/2000/svg">
<path d="M0 76.6743C0 82.0215 1.5755 86.7957 4.77424 90.997C7.97298 95.1984 12.0788 98.0152 17.0918 99.3997L13.9408 107.516C13.7021 108.184 13.9408 108.566 14.6092 108.566H24.7783L17.9511 128.666H19.3357L40.1514 101.644C40.3423 101.453 40.3423 101.214 40.2469 100.975C40.1514 100.736 39.9127 100.641 39.5785 100.641H29.1229L41.0107 78.4408C41.3449 77.7724 41.154 77.3905 40.3423 77.3905H26.2106C25.7809 77.3905 25.399 77.6292 25.1125 78.1066L20.0041 91.8564C16.5666 90.997 13.7021 89.1828 11.5059 86.3183C9.26203 83.5015 8.16395 80.3027 8.16395 76.6743C8.16395 72.6639 9.50074 69.1788 12.1743 66.2665C14.8479 63.3542 18.2376 61.6355 22.248 61.158L24.6828 61.0148C25.2557 61.0148 25.5899 60.7761 25.7332 60.3464L26.0674 57.5296C26.5925 52.3734 28.7409 48.0289 32.6081 44.5437C36.4752 41.0585 41.0107 39.292 46.2624 39.292C51.4663 39.292 56.0019 41.0585 59.9167 44.5437C63.8316 48.0289 66.0755 52.3734 66.6007 57.5296L66.9826 60.3464C66.9826 60.8716 67.2691 61.158 67.842 61.158H75.5285C79.7776 61.158 83.4537 62.6858 86.557 65.7413C89.6603 68.7968 91.188 72.4252 91.188 76.6743C91.188 80.8279 89.7557 84.4086 86.8912 87.4641C84.0267 90.5196 80.5892 92.1429 76.4834 92.3816C75.8627 92.3816 75.5285 92.668 75.5285 93.2409V99.6384C75.5285 100.164 75.8627 100.45 76.4834 100.45C80.6847 100.355 84.5518 99.2087 88.037 97.0126C91.5222 94.8642 94.2913 91.9519 96.3442 88.3712C98.3971 84.7905 99.3997 80.8756 99.3997 76.6743C99.3997 73.1891 98.7313 69.9904 97.3468 67.0303C100.975 62.4471 102.789 57.1954 102.789 51.3231C102.789 46.7876 101.644 42.5862 99.3997 38.7191C97.1558 34.852 94.1003 31.7964 90.2332 29.5526C86.366 27.3087 82.1647 26.1628 77.6292 26.1628C74.1917 26.1628 70.8497 26.879 67.6033 28.3112C64.3568 29.7435 61.5877 31.7487 59.2006 34.279C55.3335 32.2261 51.0366 31.1758 46.2147 31.1758C39.4352 31.1758 33.4197 33.2765 28.2158 37.4778C23.0118 41.6791 19.6221 47.0263 18.1899 53.567C12.8905 54.8083 8.54589 57.5773 5.10844 61.8742C1.71873 66.2665 0 71.1839 0 76.6743ZM40.1514 17.9989C40.1514 19.097 40.5333 20.0518 41.3449 20.8634L44.4482 24.0144C45.2121 24.7783 46.0714 25.1602 47.074 25.2557C48.0766 25.399 49.0315 25.0648 49.9863 24.1577C50.9412 23.2983 51.4186 22.2957 51.4186 21.1021C51.4186 20.0041 51.0366 19.0492 50.225 18.2376L47.2172 15.0866C46.4534 14.3227 45.4985 13.9408 44.3527 13.9408C43.1591 13.9408 42.1566 14.3227 41.3449 15.0866C40.5811 15.946 40.1514 16.9008 40.1514 17.9989ZM45.785 105.702C45.785 106.848 46.1669 107.802 46.9308 108.518C47.6947 109.282 48.6495 109.664 49.6999 109.664C50.8457 109.664 51.8005 109.282 52.6121 108.518C53.4238 107.755 53.8057 106.8 53.8057 105.702C53.8057 104.556 53.4238 103.601 52.6121 102.789C51.8005 101.978 50.8457 101.548 49.6999 101.548C48.6495 101.548 47.7424 101.978 46.9308 102.789C46.1192 103.601 45.785 104.556 45.785 105.702ZM45.785 88.3235C45.785 89.4693 46.1669 90.3764 46.9308 91.0925C47.6947 91.8564 48.6495 92.2383 49.6999 92.2383C50.8457 92.2383 51.8483 91.8564 52.6121 91.1403C53.376 90.4241 53.8057 89.4693 53.8057 88.3235C53.8057 87.2254 53.4238 86.2705 52.6121 85.4589C51.8005 84.6473 50.8457 84.2654 49.6999 84.2654C48.6018 84.2654 47.6947 84.6473 46.9308 85.4589C46.1669 86.2705 45.785 87.2254 45.785 88.3235ZM45.785 123.223C45.785 124.273 46.1669 125.181 46.9308 125.944C47.7424 126.756 48.6495 127.138 49.6999 127.138C50.8457 127.138 51.8005 126.756 52.6121 125.992C53.4238 125.228 53.8057 124.321 53.8057 123.175C53.8057 122.03 53.4238 121.075 52.6121 120.263C51.8005 119.452 50.8457 119.022 49.6999 119.022C48.6495 119.022 47.7424 119.452 46.9308 120.263C46.1669 121.122 45.785 122.125 45.785 123.223ZM61.2058 96.4397C61.2058 97.5855 61.5877 98.5403 62.3993 99.3042C63.211 100.068 64.1181 100.498 65.2639 100.498C66.362 100.498 67.3168 100.116 68.0807 99.3042C68.8446 98.4926 69.2265 97.5377 69.2265 96.4397C69.2265 95.3893 68.8446 94.4345 68.0807 93.6706C67.3168 92.9067 66.4097 92.5248 65.2639 92.5248C64.1658 92.5248 63.211 92.9067 62.3993 93.6706C61.5877 94.4345 61.2058 95.3416 61.2058 96.4397ZM61.2058 113.818C61.2058 114.916 61.5877 115.823 62.3516 116.587C63.1155 117.351 64.0703 117.733 65.2161 117.733C66.362 117.733 67.2691 117.351 68.0329 116.587C68.7968 115.823 69.131 114.916 69.131 113.77C69.131 112.624 68.7491 111.717 68.0329 110.953C67.2691 110.189 66.362 109.855 65.2161 109.855C64.0703 109.855 63.1155 110.237 62.3516 110.953C61.5877 111.717 61.2058 112.672 61.2058 113.818ZM65.98 39.1488C69.1788 36.0933 73.0459 34.5178 77.6769 34.5178C82.3557 34.5178 86.366 36.141 89.6603 39.4352C92.9545 42.6817 94.6255 46.6921 94.6255 51.3708C94.6255 54.5218 93.8616 57.3864 92.3816 60.0122C87.7983 55.4289 82.2124 53.1373 75.5762 53.1373H74.0962C72.7117 47.456 69.9904 42.7772 65.98 39.1488ZM73.6188 13.9885C73.6188 15.1343 74.0007 16.0892 74.8124 16.9008C75.624 17.7124 76.5788 18.0944 77.6769 18.0944C78.8227 18.0944 79.7776 17.7124 80.5415 16.9008C81.3053 16.0892 81.6873 15.1343 81.6873 13.9885V4.15359C81.6873 3.00777 81.3053 2.00518 80.5415 1.2413C79.7776 0.429682 78.8227 0 77.6769 0C76.5311 0 75.5762 0.38194 74.8124 1.19356C74.0485 2.00518 73.6188 2.96003 73.6188 4.10585V13.9885ZM100.259 24.9215C100.259 26.0674 100.641 27.0222 101.357 27.7861C102.026 28.55 102.885 28.9319 103.983 29.0274C105.081 29.1229 106.084 28.6932 106.991 27.7861L113.866 20.9112C114.725 20.1473 115.107 19.1924 115.107 18.0466C115.107 16.9008 114.677 15.946 113.866 15.1821C113.102 14.3227 112.147 13.9408 111.001 13.9408C109.903 13.9408 108.996 14.3705 108.232 15.1821L101.357 22.057C100.593 22.7731 100.259 23.728 100.259 24.9215ZM103.935 81.7828C103.935 82.8808 104.317 83.8357 105.129 84.6473L108.232 87.6551C109.091 88.4667 110.094 88.8486 111.192 88.8486L111.288 88.9441C112.338 88.9441 113.197 88.5144 113.866 87.6551C114.725 86.8912 115.107 85.9363 115.107 84.7905C115.107 83.6924 114.677 82.7376 113.866 81.8782L110.906 78.9182C110.046 78.0588 109.091 77.6292 107.993 77.6292C106.848 77.6292 105.893 78.0588 105.129 78.8705C104.365 79.6821 103.935 80.6847 103.935 81.7828ZM110.953 51.3708C110.953 52.5167 111.383 53.4715 112.195 54.1876C112.959 55.047 113.913 55.4289 115.059 55.4289H124.894C126.04 55.4289 126.995 55.047 127.806 54.2354C128.618 53.4238 129 52.4689 129 51.3708C129 50.2728 128.618 49.2702 127.806 48.5063C126.995 47.7424 126.04 47.3605 124.894 47.3605H115.059C113.913 47.3605 112.911 47.7424 112.147 48.5063C111.335 49.2702 110.953 50.225 110.953 51.3708Z" fill="white"/>
</svg>
